<svg width="428" height="294" viewBox="0 0 428 294" fill="none" xmlns="http://www.w3.org/2000/svg">
<g filter="url(#filter0_d_1105_150)">
<mask id="path-1-outside-1_1105_150" maskUnits="userSpaceOnUse" x="-0.335876" y="-0.117813" width="424" height="194" fill="black">
<rect fill="white" x="-0.335876" y="-0.117813" width="424" height="194"/>
<path d="M138.68 150.274C162.164 150.274 186.815 149.382 212.634 147.596C209.475 153.227 207.347 158.583 206.248 163.664C205.149 168.746 204.257 175.132 203.57 182.822C175.279 183.646 154.542 184.058 141.358 184.058C117.325 184.058 98.3041 182.96 84.2961 180.762C70.2881 178.565 57.9281 175.063 47.2161 170.256C40.4868 175.063 31.3541 180.35 19.8181 186.118L18.7881 181.792C16.5908 172.042 14.6681 164.008 13.0201 157.69C11.3721 151.373 9.38079 145.399 7.04612 139.768C12.9515 137.983 17.6208 135.511 21.0541 132.352V117.314H11.3721L11.5781 83.3242H63.9021V119.786C66.0995 113.469 67.5415 106.053 68.2281 97.5382C68.9148 89.0235 69.3268 77.5562 69.4641 63.1362H63.2841V62.1062L56.0741 80.4402C40.6928 75.0842 24.8308 70.7582 8.48812 67.4622L22.7021 31.8242C36.7101 35.8068 50.1688 40.2015 63.0781 45.0082L62.8721 33.2662H83.4721V26.0562H118.286V33.2662H135.178V57.3682C138.199 49.5402 140.328 39.5148 141.564 27.2922H173.7L173.082 33.6782H206.248V64.5782H165.872C165.185 66.3635 164.705 67.4622 164.43 67.8742H204.394L205.836 89.9162L202.128 90.9462L196.772 93.8302H207.278V118.344H198.214C200.961 121.64 202.334 125.692 202.334 130.498C202.334 136.266 199.244 140.73 193.064 143.888C187.021 146.91 179.674 148.42 171.022 148.42C159.623 148.42 149.529 147.734 140.74 146.36C140.74 139.082 139.161 129.743 136.002 118.344H134.766V122.052C134.766 128.644 134.079 133.657 132.706 137.09C131.333 140.524 128.449 143.202 124.054 145.124C119.797 147.047 113.067 148.489 103.866 149.45C112.518 150 124.123 150.274 138.68 150.274ZM102.836 63.1362C102.699 64.0975 102.63 65.4708 102.63 67.2562H130.234C131.195 65.8828 131.951 64.5095 132.5 63.1362H102.836ZM171.022 93.8302C171.709 93.1435 172.601 92.1135 173.7 90.7402H138.062V71.3762L134.766 70.3462V93.8302H171.022ZM101.188 97.3322C100.227 106.534 99.3341 113.744 98.5101 118.962C100.845 118.276 102.287 117.589 102.836 116.902C103.385 116.078 103.66 115.048 103.66 113.812V97.3322H101.188ZM136.826 118.344C147.813 120.679 155.847 121.846 160.928 121.846C166.421 121.846 169.511 120.679 170.198 118.344H136.826ZM82.2361 147.802C75.0948 141.76 68.9835 137.434 63.9021 134.824V144.712C68.7088 145.948 74.8201 146.978 82.2361 147.802ZM94.8021 135.236C93.0168 141.004 91.0941 145.399 89.0341 148.42C91.0941 148.695 94.0468 148.97 97.8921 149.244C97.6175 148.146 97.2055 146.154 96.6561 143.27C96.2441 140.386 95.6261 137.708 94.8021 135.236ZM392.924 83.2822L380.524 82.8822C389.857 96.6155 397.124 110.416 402.324 124.282C407.524 138.149 411.524 153.949 414.324 171.682C404.324 173.149 395.991 174.549 389.324 175.882C382.791 177.216 375.991 178.949 368.924 181.082C367.724 161.216 364.991 144.616 360.724 131.282C356.591 117.949 349.657 105.282 339.924 93.2822L367.324 82.0822C345.857 80.8822 323.657 78.8822 300.724 76.0822C305.924 81.2822 311.924 85.6822 318.724 89.2822C333.257 96.7488 343.591 105.216 349.724 114.682C355.857 124.016 358.924 134.816 358.924 147.082C358.924 158.416 354.924 167.349 346.924 173.882C339.057 180.282 327.257 183.482 311.524 183.482C299.657 183.482 289.924 183.349 282.324 183.082C280.991 174.149 278.724 164.282 275.524 153.482C267.124 166.282 258.524 177.282 249.724 186.482C242.391 179.016 235.791 172.949 229.924 168.282C224.191 163.482 217.524 159.416 209.924 156.082C220.591 147.149 229.257 138.349 235.924 129.682C242.724 120.882 247.857 111.682 251.324 102.082L268.724 105.082C264.591 102.416 260.457 99.3488 256.324 95.8822C252.324 92.4155 249.791 90.2155 248.724 89.2822L241.124 82.8822C255.124 79.0155 265.791 75.5488 273.124 72.4822L247.324 68.6822C246.257 68.4155 244.657 68.1489 242.524 67.8822L253.724 30.8822C290.657 36.6155 329.591 40.2822 370.524 41.8822L358.324 36.4822C366.057 27.8155 372.857 18.0822 378.724 7.28217L395.124 14.6822C389.791 24.4155 383.524 33.5488 376.324 42.0822C377.924 42.2155 380.191 42.2822 383.124 42.2822C389.791 33.8822 395.457 25.4822 400.124 17.0822L416.524 24.2822C411.324 34.0155 404.857 43.4822 397.124 52.6822L392.924 83.2822ZM313.324 135.482C313.324 133.082 311.724 130.416 308.524 127.482C305.324 124.549 300.591 121.482 294.324 118.282C291.657 124.816 287.791 132.616 282.724 141.682C289.657 143.149 296.124 143.882 302.124 143.882C306.391 143.882 309.324 143.349 310.924 142.282C312.524 141.082 313.324 138.816 313.324 135.482Z"/>
</mask>
<path d="M138.68 150.274C162.164 150.274 186.815 149.382 212.634 147.596C209.475 153.227 207.347 158.583 206.248 163.664C205.149 168.746 204.257 175.132 203.57 182.822C175.279 183.646 154.542 184.058 141.358 184.058C117.325 184.058 98.3041 182.96 84.2961 180.762C70.2881 178.565 57.9281 175.063 47.2161 170.256C40.4868 175.063 31.3541 180.35 19.8181 186.118L18.7881 181.792C16.5908 172.042 14.6681 164.008 13.0201 157.69C11.3721 151.373 9.38079 145.399 7.04612 139.768C12.9515 137.983 17.6208 135.511 21.0541 132.352V117.314H11.3721L11.5781 83.3242H63.9021V119.786C66.0995 113.469 67.5415 106.053 68.2281 97.5382C68.9148 89.0235 69.3268 77.5562 69.4641 63.1362H63.2841V62.1062L56.0741 80.4402C40.6928 75.0842 24.8308 70.7582 8.48812 67.4622L22.7021 31.8242C36.7101 35.8068 50.1688 40.2015 63.0781 45.0082L62.8721 33.2662H83.4721V26.0562H118.286V33.2662H135.178V57.3682C138.199 49.5402 140.328 39.5148 141.564 27.2922H173.7L173.082 33.6782H206.248V64.5782H165.872C165.185 66.3635 164.705 67.4622 164.43 67.8742H204.394L205.836 89.9162L202.128 90.9462L196.772 93.8302H207.278V118.344H198.214C200.961 121.64 202.334 125.692 202.334 130.498C202.334 136.266 199.244 140.73 193.064 143.888C187.021 146.91 179.674 148.42 171.022 148.42C159.623 148.42 149.529 147.734 140.74 146.36C140.74 139.082 139.161 129.743 136.002 118.344H134.766V122.052C134.766 128.644 134.079 133.657 132.706 137.09C131.333 140.524 128.449 143.202 124.054 145.124C119.797 147.047 113.067 148.489 103.866 149.45C112.518 150 124.123 150.274 138.68 150.274ZM102.836 63.1362C102.699 64.0975 102.63 65.4708 102.63 67.2562H130.234C131.195 65.8828 131.951 64.5095 132.5 63.1362H102.836ZM171.022 93.8302C171.709 93.1435 172.601 92.1135 173.7 90.7402H138.062V71.3762L134.766 70.3462V93.8302H171.022ZM101.188 97.3322C100.227 106.534 99.3341 113.744 98.5101 118.962C100.845 118.276 102.287 117.589 102.836 116.902C103.385 116.078 103.66 115.048 103.66 113.812V97.3322H101.188ZM136.826 118.344C147.813 120.679 155.847 121.846 160.928 121.846C166.421 121.846 169.511 120.679 170.198 118.344H136.826ZM82.2361 147.802C75.0948 141.76 68.9835 137.434 63.9021 134.824V144.712C68.7088 145.948 74.8201 146.978 82.2361 147.802ZM94.8021 135.236C93.0168 141.004 91.0941 145.399 89.0341 148.42C91.0941 148.695 94.0468 148.97 97.8921 149.244C97.6175 148.146 97.2055 146.154 96.6561 143.27C96.2441 140.386 95.6261 137.708 94.8021 135.236ZM392.924 83.2822L380.524 82.8822C389.857 96.6155 397.124 110.416 402.324 124.282C407.524 138.149 411.524 153.949 414.324 171.682C404.324 173.149 395.991 174.549 389.324 175.882C382.791 177.216 375.991 178.949 368.924 181.082C367.724 161.216 364.991 144.616 360.724 131.282C356.591 117.949 349.657 105.282 339.924 93.2822L367.324 82.0822C345.857 80.8822 323.657 78.8822 300.724 76.0822C305.924 81.2822 311.924 85.6822 318.724 89.2822C333.257 96.7488 343.591 105.216 349.724 114.682C355.857 124.016 358.924 134.816 358.924 147.082C358.924 158.416 354.924 167.349 346.924 173.882C339.057 180.282 327.257 183.482 311.524 183.482C299.657 183.482 289.924 183.349 282.324 183.082C280.991 174.149 278.724 164.282 275.524 153.482C267.124 166.282 258.524 177.282 249.724 186.482C242.391 179.016 235.791 172.949 229.924 168.282C224.191 163.482 217.524 159.416 209.924 156.082C220.591 147.149 229.257 138.349 235.924 129.682C242.724 120.882 247.857 111.682 251.324 102.082L268.724 105.082C264.591 102.416 260.457 99.3488 256.324 95.8822C252.324 92.4155 249.791 90.2155 248.724 89.2822L241.124 82.8822C255.124 79.0155 265.791 75.5488 273.124 72.4822L247.324 68.6822C246.257 68.4155 244.657 68.1489 242.524 67.8822L253.724 30.8822C290.657 36.6155 329.591 40.2822 370.524 41.8822L358.324 36.4822C366.057 27.8155 372.857 18.0822 378.724 7.28217L395.124 14.6822C389.791 24.4155 383.524 33.5488 376.324 42.0822C377.924 42.2155 380.191 42.2822 383.124 42.2822C389.791 33.8822 395.457 25.4822 400.124 17.0822L416.524 24.2822C411.324 34.0155 404.857 43.4822 397.124 52.6822L392.924 83.2822ZM313.324 135.482C313.324 133.082 311.724 130.416 308.524 127.482C305.324 124.549 300.591 121.482 294.324 118.282C291.657 124.816 287.791 132.616 282.724 141.682C289.657 143.149 296.124 143.882 302.124 143.882C306.391 143.882 309.324 143.349 310.924 142.282C312.524 141.082 313.324 138.816 313.324 135.482Z" fill="#FF5824"/>
<path d="M212.634 147.596L216.995 150.042L221.524 141.97L212.289 142.608L212.634 147.596ZM206.248 163.664L201.361 162.608L206.248 163.664ZM203.57 182.822L203.716 187.82L208.155 187.691L208.55 183.267L203.57 182.822ZM84.2961 180.762L83.5213 185.702L84.2961 180.762ZM47.2161 170.256L49.2631 165.694L46.645 164.52L44.3099 166.188L47.2161 170.256ZM19.8181 186.118L14.9541 187.276L16.4145 193.41L22.0542 190.59L19.8181 186.118ZM18.7881 181.792L13.9104 182.891L13.9171 182.921L13.9241 182.95L18.7881 181.792ZM13.0201 157.69L8.18204 158.952H8.18204L13.0201 157.69ZM7.04612 139.768L5.59918 134.982L0.311703 136.581L2.42741 141.683L7.04612 139.768ZM21.0541 132.352L24.4394 136.032L26.0541 134.546V132.352H21.0541ZM21.0541 117.314H26.0541V112.314H21.0541V117.314ZM11.3721 117.314L6.37222 117.284L6.34173 122.314H11.3721V117.314ZM11.5781 83.3242V78.3242H6.60834L6.57822 83.2939L11.5781 83.3242ZM63.9021 83.3242H68.9021V78.3242H63.9021V83.3242ZM63.9021 119.786H58.9021L68.6246 121.429L63.9021 119.786ZM68.2281 97.5382L63.2443 97.1363L68.2281 97.5382ZM69.4641 63.1362L74.4639 63.1838L74.512 58.1362H69.4641V63.1362ZM63.2841 63.1362H58.2841V68.1362H63.2841V63.1362ZM63.2841 62.1062H68.2841L58.631 60.2763L63.2841 62.1062ZM56.0741 80.4402L54.4299 85.1621L58.9684 86.7425L60.7272 82.2701L56.0741 80.4402ZM8.48812 67.4622L3.84389 65.6099L1.62296 71.1783L7.49962 72.3635L8.48812 67.4622ZM22.7021 31.8242L24.0695 27.0148L19.7295 25.7808L18.0579 29.9719L22.7021 31.8242ZM63.0781 45.0082L61.3334 49.6939L68.206 52.2528L68.0774 44.9205L63.0781 45.0082ZM62.8721 33.2662V28.2662H57.7836L57.8729 33.3539L62.8721 33.2662ZM83.4721 33.2662V38.2662H88.4721V33.2662H83.4721ZM83.4721 26.0562V21.0562H78.4721V26.0562H83.4721ZM118.286 26.0562H123.286V21.0562H118.286V26.0562ZM118.286 33.2662H113.286V38.2662H118.286V33.2662ZM135.178 33.2662H140.178V28.2662H135.178V33.2662ZM135.178 57.3682H130.178L139.843 59.1686L135.178 57.3682ZM141.564 27.2922V22.2922H137.044L136.59 26.7891L141.564 27.2922ZM173.7 27.2922L178.677 27.7738L179.207 22.2922H173.7V27.2922ZM173.082 33.6782L168.105 33.1966L167.575 38.6782H173.082V33.6782ZM206.248 33.6782H211.248V28.6782H206.248V33.6782ZM206.248 64.5782V69.5782H211.248V64.5782H206.248ZM165.872 64.5782V59.5782H162.438L161.205 62.7833L165.872 64.5782ZM164.43 67.8742L160.27 65.1007L155.088 72.8742H164.43V67.8742ZM204.394 67.8742L209.383 67.5478L209.078 62.8742H204.394V67.8742ZM205.836 89.9162L207.174 94.7338L211.091 93.6459L210.825 89.5898L205.836 89.9162ZM202.128 90.9462L200.79 86.1286L200.251 86.2784L199.758 86.5438L202.128 90.9462ZM196.772 93.8302L194.402 89.4278L196.772 98.8302V93.8302ZM207.278 93.8302H212.278V88.8302H207.278V93.8302ZM207.278 118.344V123.344H212.278V118.344H207.278ZM198.214 118.344V113.344H187.539L194.373 121.545L198.214 118.344ZM193.064 143.888L195.3 148.36L195.32 148.35L195.34 148.34L193.064 143.888ZM140.74 146.36H135.74V150.64L139.968 151.3L140.74 146.36ZM136.002 118.344L140.821 117.009L139.805 113.344H136.002V118.344ZM134.766 118.344V113.344H129.766V118.344H134.766ZM132.706 137.09L137.349 138.947L132.706 137.09ZM124.054 145.124L122.05 140.543L122.023 140.555L121.996 140.567L124.054 145.124ZM103.866 149.45L103.347 144.477L103.549 154.44L103.866 149.45ZM102.836 63.1362V58.1362H98.4996L97.8864 62.4291L102.836 63.1362ZM102.63 67.2562H97.6301V72.2562H102.63V67.2562ZM130.234 67.2562V72.2562H132.837L134.33 70.1235L130.234 67.2562ZM132.5 63.1362L137.143 64.9931L139.885 58.1362H132.5V63.1362ZM171.022 93.8302V98.8302H173.093L174.558 97.3657L171.022 93.8302ZM173.7 90.7402L177.604 93.8637L184.103 85.7402H173.7V90.7402ZM138.062 90.7402H133.062V95.7402H138.062V90.7402ZM138.062 71.3762H143.062V67.7002L139.554 66.6038L138.062 71.3762ZM134.766 70.3462L136.258 65.5738L129.766 63.5452V70.3462H134.766ZM134.766 93.8302H129.766V98.8302H134.766V93.8302ZM101.188 97.3322V92.3322H96.6833L96.2152 96.8126L101.188 97.3322ZM98.5101 118.962L93.5713 118.182L92.3387 125.989L99.921 123.759L98.5101 118.962ZM102.836 116.902L106.74 120.026L106.876 119.856L106.996 119.676L102.836 116.902ZM103.66 97.3322H108.66V92.3322H103.66V97.3322ZM136.826 118.344V113.344L135.787 123.235L136.826 118.344ZM170.198 118.344L174.995 119.755L176.88 113.344H170.198V118.344ZM82.2361 147.802L81.684 152.772L97.991 154.583L85.4658 143.985L82.2361 147.802ZM63.9021 134.824L66.1861 130.376L58.9021 126.636V134.824H63.9021ZM63.9021 144.712H58.9021V148.589L62.6569 149.555L63.9021 144.712ZM94.8021 135.236L99.5455 133.655L94.6258 118.896L90.0257 133.758L94.8021 135.236ZM89.0341 148.42L84.903 145.604L80.3342 152.304L88.3733 153.376L89.0341 148.42ZM97.8921 149.244L97.5359 154.231L104.416 154.723L102.743 148.032L97.8921 149.244ZM96.6561 143.27L91.7064 143.977L91.7228 144.092L91.7444 144.206L96.6561 143.27ZM138.68 150.274V155.274C162.29 155.274 187.057 154.377 212.979 152.584L212.634 147.596L212.289 142.608C186.574 144.386 162.038 145.274 138.68 145.274V150.274ZM212.634 147.596L208.273 145.15C204.927 151.115 202.587 156.938 201.361 162.608L206.248 163.664L211.135 164.721C212.107 160.227 214.024 155.339 216.995 150.042L212.634 147.596ZM206.248 163.664L201.361 162.608C200.203 167.962 199.287 174.57 198.59 182.378L203.57 182.822L208.55 183.267C209.227 175.693 210.096 169.529 211.135 164.721L206.248 163.664ZM203.57 182.822L203.425 177.824C175.141 178.648 154.465 179.058 141.358 179.058V184.058V189.058C154.62 189.058 175.418 188.644 203.716 187.82L203.57 182.822ZM141.358 184.058V179.058C117.433 179.058 98.707 177.962 85.071 175.823L84.2961 180.762L83.5213 185.702C97.9013 187.957 117.217 189.058 141.358 189.058V184.058ZM84.2961 180.762L85.071 175.823C71.4143 173.68 59.4961 170.286 49.2631 165.694L47.2161 170.256L45.1692 174.818C56.3602 179.84 69.162 183.449 83.5213 185.702L84.2961 180.762ZM47.2161 170.256L44.3099 166.188C37.8762 170.783 28.9983 175.938 17.5821 181.646L19.8181 186.118L22.0542 190.59C33.71 184.762 43.0974 179.343 50.1223 174.325L47.2161 170.256ZM19.8181 186.118L24.6822 184.96L23.6522 180.634L18.7881 181.792L13.9241 182.95L14.9541 187.276L19.8181 186.118ZM18.7881 181.792L23.6658 180.693C21.4619 170.913 19.5256 162.82 17.8582 156.428L13.0201 157.69L8.18204 158.952C9.81063 165.195 11.7197 173.17 13.9104 182.891L18.7881 181.792ZM13.0201 157.69L17.8582 156.428C16.1562 149.904 14.0935 143.711 11.6648 137.853L7.04612 139.768L2.42741 141.683C4.66807 147.087 6.588 152.842 8.18204 158.952L13.0201 157.69ZM7.04612 139.768L8.49307 144.554C14.8972 142.618 20.3028 139.838 24.4394 136.032L21.0541 132.352L17.6688 128.673C14.9388 131.184 11.0057 133.348 5.59918 134.982L7.04612 139.768ZM21.0541 132.352H26.0541V117.314H21.0541H16.0541V132.352H21.0541ZM21.0541 117.314V112.314H11.3721V117.314V122.314H21.0541V117.314ZM11.3721 117.314L16.372 117.344L16.578 83.3545L11.5781 83.3242L6.57822 83.2939L6.37222 117.284L11.3721 117.314ZM11.5781 83.3242V88.3242H63.9021V83.3242V78.3242H11.5781V83.3242ZM63.9021 83.3242H58.9021V119.786H63.9021H68.9021V83.3242H63.9021ZM63.9021 119.786L68.6246 121.429C70.9936 114.618 72.5001 106.767 73.2119 97.9401L68.2281 97.5382L63.2443 97.1363C62.5828 105.339 61.2053 112.32 59.1796 118.144L63.9021 119.786ZM68.2281 97.5382L73.2119 97.9401C73.9124 89.2549 74.3261 77.6537 74.4639 63.1838L69.4641 63.1362L64.4644 63.0886C64.3275 77.4587 63.9172 88.7921 63.2443 97.1363L68.2281 97.5382ZM69.4641 63.1362V58.1362H63.2841V63.1362V68.1362H69.4641V63.1362ZM63.2841 63.1362H68.2841V62.1062H63.2841H58.2841V63.1362H63.2841ZM63.2841 62.1062L58.631 60.2763L51.421 78.6103L56.0741 80.4402L60.7272 82.2701L67.9372 63.9361L63.2841 62.1062ZM56.0741 80.4402L57.7184 75.7183C42.1178 70.2859 26.0364 65.9007 9.47663 62.5609L8.48812 67.4622L7.49962 72.3635C23.6251 75.6157 39.2678 79.8824 54.4299 85.1621L56.0741 80.4402ZM8.48812 67.4622L13.1324 69.3145L27.3464 33.6765L22.7021 31.8242L18.0579 29.9719L3.84389 65.6099L8.48812 67.4622ZM22.7021 31.8242L21.3347 36.6336C35.2226 40.5821 48.555 44.936 61.3334 49.6939L63.0781 45.0082L64.8228 40.3225C51.7826 35.467 38.1977 31.0316 24.0695 27.0148L22.7021 31.8242ZM63.0781 45.0082L68.0774 44.9205L67.8714 33.1785L62.8721 33.2662L57.8729 33.3539L58.0789 45.0959L63.0781 45.0082ZM62.8721 33.2662V38.2662H83.4721V33.2662V28.2662H62.8721V33.2662ZM83.4721 33.2662H88.4721V26.0562H83.4721H78.4721V33.2662H83.4721ZM83.4721 26.0562V31.0562H118.286V26.0562V21.0562H83.4721V26.0562ZM118.286 26.0562H113.286V33.2662H118.286H123.286V26.0562H118.286ZM118.286 33.2662V38.2662H135.178V33.2662V28.2662H118.286V33.2662ZM135.178 33.2662H130.178V57.3682H135.178H140.178V33.2662H135.178ZM135.178 57.3682L139.843 59.1686C143.08 50.7798 145.277 40.2767 146.539 27.7952L141.564 27.2922L136.59 26.7891C135.38 38.753 133.318 48.3005 130.514 55.5678L135.178 57.3682ZM141.564 27.2922V32.2922H173.7V27.2922V22.2922H141.564V27.2922ZM173.7 27.2922L168.723 26.8106L168.105 33.1966L173.082 33.6782L178.059 34.1598L178.677 27.7738L173.7 27.2922ZM173.082 33.6782V38.6782H206.248V33.6782V28.6782H173.082V33.6782ZM206.248 33.6782H201.248V64.5782H206.248H211.248V33.6782H206.248ZM206.248 64.5782V59.5782H165.872V64.5782V69.5782H206.248V64.5782ZM165.872 64.5782L161.205 62.7833C160.875 63.6416 160.614 64.2849 160.416 64.7371C160.317 64.9631 160.247 65.1122 160.203 65.2004C160.146 65.3134 160.171 65.2487 160.27 65.1007L164.43 67.8742L168.59 70.6476C168.998 70.0367 169.338 69.2922 169.577 68.7453C169.86 68.0988 170.182 67.3001 170.539 66.3731L165.872 64.5782ZM164.43 67.8742V72.8742H204.394V67.8742V62.8742H164.43V67.8742ZM204.394 67.8742L199.405 68.2006L200.847 90.2426L205.836 89.9162L210.825 89.5898L209.383 67.5478L204.394 67.8742ZM205.836 89.9162L204.498 85.0986L200.79 86.1286L202.128 90.9462L203.466 95.7638L207.174 94.7338L205.836 89.9162ZM202.128 90.9462L199.758 86.5438L194.402 89.4278L196.772 93.8302L199.143 98.2325L204.499 95.3485L202.128 90.9462ZM196.772 93.8302V98.8302H207.278V93.8302V88.8302H196.772V93.8302ZM207.278 93.8302H202.278V118.344H207.278H212.278V93.8302H207.278ZM207.278 118.344V113.344H198.214V118.344V123.344H207.278V118.344ZM198.214 118.344L194.373 121.545C196.28 123.834 197.334 126.711 197.334 130.498H202.334H207.334C207.334 124.672 205.641 119.447 202.055 115.143L198.214 118.344ZM202.334 130.498H197.334C197.334 133.968 195.707 136.922 190.789 139.436L193.064 143.888L195.34 148.34C202.782 144.537 207.334 138.564 207.334 130.498H202.334ZM193.064 143.888L190.828 139.416C185.647 142.007 179.109 143.42 171.022 143.42V148.42V153.42C180.239 153.42 188.396 151.812 195.3 148.36L193.064 143.888ZM171.022 148.42V143.42C159.814 143.42 149.987 142.744 141.512 141.42L140.74 146.36L139.968 151.3C149.072 152.723 159.433 153.42 171.022 153.42V148.42ZM140.74 146.36H145.74C145.74 138.438 144.035 128.608 140.821 117.009L136.002 118.344L131.184 119.679C134.287 130.878 135.74 139.725 135.74 146.36H140.74ZM136.002 118.344V113.344H134.766V118.344V123.344H136.002V118.344ZM134.766 118.344H129.766V122.052H134.766H139.766V118.344H134.766ZM134.766 122.052H129.766C129.766 128.427 129.084 132.684 128.064 135.233L132.706 137.09L137.349 138.947C139.075 134.63 139.766 128.861 139.766 122.052H134.766ZM132.706 137.09L128.064 135.233C127.311 137.116 125.614 138.984 122.05 140.543L124.054 145.124L126.058 149.705C131.284 147.419 135.355 143.931 137.349 138.947L132.706 137.09ZM124.054 145.124L121.996 140.567C118.499 142.147 112.431 143.528 103.347 144.477L103.866 149.45L104.386 154.423C113.704 153.45 121.095 151.947 126.112 149.681L124.054 145.124ZM103.866 149.45L103.549 154.44C112.354 154.999 124.078 155.274 138.68 155.274V150.274V145.274C124.168 145.274 112.683 145 104.183 144.46L103.866 149.45ZM102.836 63.1362L97.8864 62.4291C97.6987 63.743 97.6301 65.3952 97.6301 67.2562H102.63H107.63C107.63 65.5464 107.699 64.452 107.786 63.8433L102.836 63.1362ZM102.63 67.2562V72.2562H130.234V67.2562V62.2562H102.63V67.2562ZM130.234 67.2562L134.33 70.1235C135.483 68.4764 136.433 66.7667 137.143 64.9931L132.5 63.1362L127.858 61.2792C127.469 62.2523 126.908 63.2892 126.138 64.3889L130.234 67.2562ZM132.5 63.1362V58.1362H102.836V63.1362V68.1362H132.5V63.1362ZM171.022 93.8302L174.558 97.3657C175.439 96.4841 176.467 95.2857 177.604 93.8637L173.7 90.7402L169.796 87.6167C168.736 88.9413 167.978 89.803 167.487 90.2946L171.022 93.8302ZM173.7 90.7402V85.7402H138.062V90.7402V95.7402H173.7V90.7402ZM138.062 90.7402H143.062V71.3762H138.062H133.062V90.7402H138.062ZM138.062 71.3762L139.554 66.6038L136.258 65.5738L134.766 70.3462L133.275 75.1186L136.571 76.1486L138.062 71.3762ZM134.766 70.3462H129.766V93.8302H134.766H139.766V70.3462H134.766ZM134.766 93.8302V98.8302H171.022V93.8302V88.8302H134.766V93.8302ZM101.188 97.3322L96.2152 96.8126C95.2573 105.981 94.3752 113.091 93.5713 118.182L98.5101 118.962L103.449 119.742C104.293 114.396 105.196 107.086 106.161 97.8517L101.188 97.3322ZM98.5101 118.962L99.921 123.759C101.225 123.375 102.444 122.946 103.492 122.446C104.426 122.002 105.751 121.263 106.74 120.026L102.836 116.902L98.9318 113.779C99.1895 113.457 99.4044 113.311 99.4181 113.301C99.4444 113.283 99.3848 113.327 99.193 113.418C98.7995 113.605 98.1299 113.862 97.0993 114.165L98.5101 118.962ZM102.836 116.902L106.996 119.676C108.215 117.847 108.66 115.79 108.66 113.812H103.66H98.6601C98.6601 114.063 98.6321 114.189 98.623 114.223C98.6158 114.25 98.6248 114.205 98.6759 114.129L102.836 116.902ZM103.66 113.812H108.66V97.3322H103.66H98.6601V113.812H103.66ZM103.66 97.3322V92.3322H101.188V97.3322V102.332H103.66V97.3322ZM136.826 118.344L135.787 123.235C146.807 125.577 155.282 126.846 160.928 126.846V121.846V116.846C156.411 116.846 148.819 115.781 137.865 113.453L136.826 118.344ZM160.928 121.846V126.846C163.932 126.846 166.771 126.54 169.133 125.648C171.58 124.723 174.063 122.923 174.995 119.755L170.198 118.344L165.401 116.933C165.646 116.1 166.241 116.051 165.599 116.293C164.87 116.568 163.417 116.846 160.928 116.846V121.846ZM170.198 118.344V113.344H136.826V118.344V123.344H170.198V118.344ZM82.2361 147.802L85.4658 143.985C78.1931 137.831 71.7508 133.234 66.1861 130.376L63.9021 134.824L61.6181 139.272C66.2161 141.633 71.9965 145.688 79.0064 151.619L82.2361 147.802ZM63.9021 134.824H58.9021V144.712H63.9021H68.9021V134.824H63.9021ZM63.9021 144.712L62.6569 149.555C67.774 150.87 74.1381 151.933 81.684 152.772L82.2361 147.802L82.7883 142.833C75.5022 142.023 69.6436 141.026 65.1473 139.87L63.9021 144.712ZM94.8021 135.236L90.0257 133.758C88.3051 139.317 86.5596 143.174 84.903 145.604L89.0341 148.42L93.1653 151.237C95.6287 147.624 97.7285 142.692 99.5786 136.715L94.8021 135.236ZM89.0341 148.42L88.3733 153.376C90.5861 153.671 93.6589 153.955 97.5359 154.231L97.8921 149.244L98.2484 144.257C94.4347 143.984 91.6022 143.718 89.6949 143.464L89.0341 148.42ZM97.8921 149.244L102.743 148.032C102.507 147.088 102.119 145.226 101.568 142.335L96.6561 143.27L91.7444 144.206C92.2923 147.082 92.728 149.203 93.0414 150.457L97.8921 149.244ZM96.6561 143.27L101.606 142.563C101.156 139.416 100.475 136.443 99.5455 133.655L94.8021 135.236L90.0587 136.817C90.7775 138.974 91.3319 141.356 91.7064 143.977L96.6561 143.27ZM392.924 83.2822L392.763 88.2796L397.265 88.4248L397.878 83.9621L392.924 83.2822ZM380.524 82.8822L380.685 77.8848L370.867 77.5681L376.389 85.6926L380.524 82.8822ZM402.324 124.282L397.642 126.038L402.324 124.282ZM414.324 171.682L415.05 176.629L420.051 175.896L419.263 170.902L414.324 171.682ZM389.324 175.882L388.344 170.979L388.334 170.981L388.324 170.983L389.324 175.882ZM368.924 181.082L363.933 181.384L364.315 187.697L370.369 185.869L368.924 181.082ZM360.724 131.282L355.948 132.763L355.955 132.784L355.962 132.806L360.724 131.282ZM339.924 93.2822L338.032 88.6539L331.799 91.2019L336.041 96.4319L339.924 93.2822ZM367.324 82.0822L369.216 86.7105L367.603 77.09L367.324 82.0822ZM300.724 76.0822L301.33 71.119L286.932 69.3611L297.189 79.6177L300.724 76.0822ZM318.724 89.2822L316.385 93.7011L316.412 93.7155L316.439 93.7296L318.724 89.2822ZM349.724 114.682L345.528 117.401L345.537 117.415L345.546 117.428L349.724 114.682ZM346.924 173.882L350.08 177.761L350.087 177.755L346.924 173.882ZM282.324 183.082L277.379 183.82L277.993 187.933L282.149 188.079L282.324 183.082ZM275.524 153.482L280.318 152.062L277.257 141.729L271.344 150.739L275.524 153.482ZM249.724 186.482L246.157 189.986L249.772 193.666L253.337 189.938L249.724 186.482ZM229.924 168.282L226.714 172.116L226.762 172.156L226.812 172.195L229.924 168.282ZM209.924 156.082L206.714 152.249L200.535 157.424L207.916 160.661L209.924 156.082ZM235.924 129.682L231.968 126.625L231.961 126.634L235.924 129.682ZM251.324 102.082L252.174 97.1549L248.044 96.443L246.621 100.384L251.324 102.082ZM268.724 105.082L267.875 110.009L271.435 100.881L268.724 105.082ZM256.324 95.8822L253.049 99.6606L253.08 99.6871L253.111 99.7131L256.324 95.8822ZM248.724 89.2822L252.017 85.5193L251.981 85.4881L251.945 85.4576L248.724 89.2822ZM241.124 82.8822L239.793 78.0626L230.64 80.5905L237.903 86.7067L241.124 82.8822ZM273.124 72.4822L275.053 77.0951L291.646 70.1563L273.853 67.5355L273.124 72.4822ZM247.324 68.6822L246.111 73.5329L246.351 73.5928L246.596 73.6288L247.324 68.6822ZM242.524 67.8822L237.739 66.4336L236.021 72.1082L241.904 72.8436L242.524 67.8822ZM253.724 30.8822L254.491 25.9414L250.197 25.2748L248.939 29.4336L253.724 30.8822ZM370.524 41.8822L370.329 46.8784L372.548 37.31L370.524 41.8822ZM358.324 36.4822L354.593 33.1532L350.023 38.2757L356.3 41.0543L358.324 36.4822ZM378.724 7.28217L380.781 2.72465L376.547 0.814528L374.331 4.89552L378.724 7.28217ZM395.124 14.6822L399.509 17.0849L402.105 12.3468L397.181 10.1247L395.124 14.6822ZM376.324 42.0822L372.503 38.8578L366.257 46.2606L375.909 47.0649L376.324 42.0822ZM383.124 42.2822V47.2822H385.539L387.041 45.3905L383.124 42.2822ZM400.124 17.0822L402.134 12.504L397.965 10.6735L395.753 14.654L400.124 17.0822ZM416.524 24.2822L420.934 26.6383L423.479 21.8749L418.534 19.704L416.524 24.2822ZM397.124 52.6822L393.297 49.4649L392.367 50.5709L392.171 52.0023L397.124 52.6822ZM308.524 127.482L305.146 131.168L308.524 127.482ZM294.324 118.282L296.598 113.829L291.751 111.354L289.695 116.393L294.324 118.282ZM282.724 141.682L278.359 139.243L275.048 145.169L281.689 146.574L282.724 141.682ZM310.924 142.282L313.698 146.442L313.813 146.365L313.924 146.282L310.924 142.282ZM392.924 83.2822L393.085 78.2848L380.685 77.8848L380.524 82.8822L380.363 87.8796L392.763 88.2796L392.924 83.2822ZM380.524 82.8822L376.389 85.6926C385.525 99.1364 392.598 112.585 397.642 126.038L402.324 124.282L407.006 122.527C401.651 108.246 394.19 94.0947 384.66 80.0717L380.524 82.8822ZM402.324 124.282L397.642 126.038C402.702 139.531 406.627 154.994 409.385 172.462L414.324 171.682L419.263 170.902C416.421 152.903 412.346 136.767 407.006 122.527L402.324 124.282ZM414.324 171.682L413.599 166.735C403.55 168.209 395.125 169.623 388.344 170.979L389.324 175.882L390.305 180.785C396.857 179.475 405.098 178.089 415.05 176.629L414.324 171.682ZM389.324 175.882L388.324 170.983C381.626 172.35 374.677 174.123 367.479 176.296L368.924 181.082L370.369 185.869C377.305 183.775 383.956 182.081 390.324 180.781L389.324 175.882ZM368.924 181.082L373.915 180.781C372.7 160.658 369.921 143.615 365.486 129.758L360.724 131.282L355.962 132.806C360.061 145.616 362.749 161.773 363.933 181.384L368.924 181.082ZM360.724 131.282L365.5 129.802C361.159 115.798 353.899 102.574 343.807 90.1325L339.924 93.2822L336.041 96.4319C345.416 107.99 352.023 120.099 355.948 132.763L360.724 131.282ZM339.924 93.2822L341.816 97.9105L369.216 86.7105L367.324 82.0822L365.432 77.4539L338.032 88.6539L339.924 93.2822ZM367.324 82.0822L367.603 77.09C346.254 75.8965 324.163 73.9068 301.33 71.119L300.724 76.0822L300.118 81.0453C323.152 83.8576 345.461 85.8679 367.045 87.0744L367.324 82.0822ZM300.724 76.0822L297.189 79.6177C302.757 85.1862 309.165 89.8788 316.385 93.7011L318.724 89.2822L321.064 84.8632C314.684 81.4856 309.091 77.3782 304.26 72.5466L300.724 76.0822ZM318.724 89.2822L316.439 93.7296C330.522 100.965 340.036 108.924 345.528 117.401L349.724 114.682L353.92 111.963C347.146 101.507 335.993 92.5328 321.009 84.8348L318.724 89.2822ZM349.724 114.682L345.546 117.428C351.091 125.866 353.924 135.692 353.924 147.082H358.924H363.924C363.924 133.94 360.624 122.165 353.903 111.936L349.724 114.682ZM358.924 147.082H353.924C353.924 157.08 350.476 164.526 343.761 170.01L346.924 173.882L350.087 177.755C359.372 170.172 363.924 159.751 363.924 147.082H358.924ZM346.924 173.882L343.769 170.004C337.169 175.373 326.708 178.482 311.524 178.482V183.482V188.482C327.807 188.482 340.946 185.191 350.08 177.761L346.924 173.882ZM311.524 183.482V178.482C299.688 178.482 290.018 178.349 282.499 178.085L282.324 183.082L282.149 188.079C289.83 188.349 299.627 188.482 311.524 188.482V183.482ZM282.324 183.082L287.269 182.344C285.894 173.132 283.569 163.033 280.318 152.062L275.524 153.482L270.73 154.903C273.879 165.531 276.087 175.166 277.379 183.82L282.324 183.082ZM275.524 153.482L271.344 150.739C263.078 163.334 254.663 174.085 246.111 183.026L249.724 186.482L253.337 189.938C262.385 180.48 271.17 169.231 279.704 156.225L275.524 153.482ZM249.724 186.482L253.291 182.979C245.866 175.419 239.112 169.202 233.037 164.369L229.924 168.282L226.812 172.195C232.47 176.696 238.915 182.612 246.157 189.986L249.724 186.482ZM229.924 168.282L233.134 164.448C227 159.313 219.919 155.006 211.932 151.503L209.924 156.082L207.916 160.661C215.129 163.825 221.382 167.651 226.714 172.116L229.924 168.282ZM209.924 156.082L213.134 159.915C224.008 150.809 232.949 141.751 239.887 132.731L235.924 129.682L231.961 126.634C225.566 134.947 217.173 143.489 206.714 152.249L209.924 156.082ZM235.924 129.682L239.881 132.739C246.97 123.565 252.369 113.911 256.027 103.78L251.324 102.082L246.621 100.384C243.346 109.453 238.478 118.2 231.968 126.625L235.924 129.682ZM251.324 102.082L250.475 107.009L267.875 110.009L268.724 105.082L269.574 100.155L252.174 97.1549L251.324 102.082ZM268.724 105.082L271.435 100.881C267.492 98.3372 263.526 95.3967 259.537 92.0512L256.324 95.8822L253.111 99.7131C257.389 103.301 261.689 106.494 266.013 109.284L268.724 105.082ZM256.324 95.8822L259.599 92.1037C255.596 88.6345 253.072 86.4432 252.017 85.5193L248.724 89.2822L245.432 93.0451C246.509 93.9879 249.052 96.1965 253.049 99.6606L256.324 95.8822ZM248.724 89.2822L251.945 85.4576L244.345 79.0576L241.124 82.8822L237.903 86.7067L245.503 93.1067L248.724 89.2822ZM241.124 82.8822L242.455 87.7017C256.522 83.8167 267.428 80.284 275.053 77.0951L273.124 72.4822L271.195 67.8693C264.154 70.8137 253.726 74.2143 239.793 78.0626L241.124 82.8822ZM273.124 72.4822L273.853 67.5355L248.053 63.7355L247.324 68.6822L246.596 73.6288L272.396 77.4288L273.124 72.4822ZM247.324 68.6822L248.537 63.8315C247.169 63.4895 245.327 63.1936 243.144 62.9208L242.524 67.8822L241.904 72.8436C243.988 73.1041 245.346 73.3415 246.111 73.5329L247.324 68.6822ZM242.524 67.8822L247.31 69.3308L258.51 32.3308L253.724 30.8822L248.939 29.4336L237.739 66.4336L242.524 67.8822ZM253.724 30.8822L252.957 35.823C290.097 41.5884 329.222 45.2716 370.329 46.8784L370.524 41.8822L370.719 36.886C329.96 35.2928 291.218 31.6427 254.491 25.9414L253.724 30.8822ZM370.524 41.8822L372.548 37.31L360.348 31.91L358.324 36.4822L356.3 41.0543L368.5 46.4543L370.524 41.8822ZM358.324 36.4822L362.055 39.8111C370.059 30.8408 377.078 20.7878 383.118 9.66883L378.724 7.28217L374.331 4.89552C368.637 15.3765 362.056 24.7902 354.593 33.1532L358.324 36.4822ZM378.724 7.28217L376.668 11.8397L393.068 19.2397L395.124 14.6822L397.181 10.1247L380.781 2.72465L378.724 7.28217ZM395.124 14.6822L390.739 12.2795C385.567 21.7191 379.489 30.5774 372.503 38.8578L376.324 42.0822L380.146 45.3065C387.559 36.5203 394.015 27.1119 399.509 17.0849L395.124 14.6822ZM376.324 42.0822L375.909 47.0649C377.716 47.2155 380.145 47.2822 383.124 47.2822V42.2822V37.2822C380.236 37.2822 378.132 37.2155 376.739 37.0994L376.324 42.0822ZM383.124 42.2822L387.041 45.3905C393.858 36.8008 399.681 28.1747 404.495 19.5104L400.124 17.0822L395.753 14.654C391.234 22.7897 385.724 30.9636 379.208 39.1739L383.124 42.2822ZM400.124 17.0822L398.114 21.6604L414.514 28.8604L416.524 24.2822L418.534 19.704L402.134 12.504L400.124 17.0822ZM416.524 24.2822L412.114 21.9261C407.092 31.3271 400.826 40.5076 393.297 49.4649L397.124 52.6822L400.952 55.8994C408.889 46.4568 415.557 36.7039 420.934 26.6383L416.524 24.2822ZM397.124 52.6822L392.171 52.0023L387.971 82.6023L392.924 83.2822L397.878 83.9621L402.078 53.3621L397.124 52.6822ZM313.324 135.482H318.324C318.324 130.897 315.365 126.97 311.903 123.796L308.524 127.482L305.146 131.168C308.084 133.861 308.324 135.268 308.324 135.482H313.324ZM308.524 127.482L311.903 123.796C308.23 120.43 303.05 117.124 296.598 113.829L294.324 118.282L292.05 122.735C298.131 125.84 302.418 128.668 305.146 131.168L308.524 127.482ZM294.324 118.282L289.695 116.393C287.132 122.672 283.368 130.28 278.359 139.243L282.724 141.682L287.089 144.121C292.213 134.951 296.183 126.959 298.953 120.172L294.324 118.282ZM282.724 141.682L281.689 146.574C288.904 148.1 295.721 148.882 302.124 148.882V143.882V138.882C296.528 138.882 290.411 138.198 283.759 136.79L282.724 141.682ZM302.124 143.882V148.882C304.441 148.882 306.561 148.739 308.419 148.402C310.226 148.073 312.104 147.505 313.698 146.442L310.924 142.282L308.151 138.122C308.169 138.109 308.078 138.173 307.81 138.267C307.545 138.361 307.161 138.466 306.63 138.563C305.554 138.758 304.074 138.882 302.124 138.882V143.882ZM310.924 142.282L313.924 146.282C317.431 143.652 318.324 139.35 318.324 135.482H313.324H308.324C308.324 136.785 308.163 137.582 308.009 138.018C307.87 138.411 307.787 138.385 307.924 138.282L310.924 142.282Z" fill="#202020" mask="url(#path-1-outside-1_1105_150)"/>
</g>
<g filter="url(#filter1_d_1105_150)">
<mask id="path-3-outside-2_1105_150" maskUnits="userSpaceOnUse" x="6.66412" y="199" width="315" height="91" fill="black">
<rect fill="white" x="6.66412" y="199" width="315" height="91"/>
<path d="M106.298 257.602C105.414 259.846 103.646 265.048 100.994 273.208L98.3421 281.47C88.7541 275.554 80.2881 270.76 72.9441 267.088C69.4761 278.172 60.5341 283.714 46.1181 283.714C38.9101 283.714 32.7561 282.796 27.6561 280.96C22.6241 279.124 18.7821 276.574 16.1301 273.31C13.4781 269.978 12.1521 266.136 12.1521 261.784C12.1521 247.776 21.6381 240.772 40.6101 240.772C43.4661 240.772 46.6621 240.942 50.1981 241.282V204.664H74.6781V215.68H104.564V236.182H74.6781V246.076C82.8381 248.388 93.3781 252.23 106.298 257.602ZM50.1981 258.316C47.4781 257.772 45.1321 257.5 43.1601 257.5C41.2561 257.5 39.8281 257.772 38.8761 258.316C37.9241 258.792 37.4481 259.438 37.4481 260.254C37.4481 261.07 38.0261 261.784 39.1821 262.396C40.3381 263.008 42.0381 263.314 44.2821 263.314C46.3901 263.314 47.8861 263.042 48.7701 262.498C49.7221 261.886 50.1981 260.73 50.1981 259.03V258.316ZM196.16 227.41C187.32 225.846 178.582 224.69 169.946 223.942C161.378 223.194 152.266 222.82 142.61 222.82C136.422 222.82 131.662 222.888 128.33 223.024L129.452 204.358H135.776C147.336 204.358 158.216 204.834 168.416 205.786C178.616 206.67 189.326 208.2 200.546 210.376L196.16 227.41ZM136.388 284.53C134.484 279.43 132.546 275.01 130.574 271.27C128.67 267.53 125.984 264.028 122.516 260.764C138.224 260.492 150.09 260.084 158.114 259.54C166.138 258.996 171.748 258.18 174.944 257.092C178.208 255.936 179.84 254.304 179.84 252.196C179.84 249.272 178.548 247.436 175.964 246.688C173.448 245.872 169.844 245.464 165.152 245.464C150.192 245.464 134.926 249.102 119.354 256.378L114.968 232.918C126.868 230.198 136.014 228.362 142.406 227.41C148.798 226.458 155.938 225.982 163.826 225.982C177.902 225.982 188.612 228.022 195.956 232.102C203.3 236.114 206.972 242.71 206.972 251.89C206.972 262.09 201.362 269.876 190.142 275.248C178.922 280.62 161.004 283.714 136.388 284.53ZM254.096 211.804C267.968 209.152 281.67 207.826 295.202 207.826C299.282 207.826 303.872 207.996 308.972 208.336C308.972 213.164 309.04 217.346 309.176 220.882C309.312 224.35 309.652 227.852 310.196 231.388C302.376 230.436 295.202 229.96 288.674 229.96C278.202 229.96 267.084 231.184 255.32 233.632L254.096 211.804ZM221.66 282.286C220.436 276.438 219.518 270.93 218.906 265.762C218.362 260.526 218.09 254.644 218.09 248.116C218.09 237.44 218.94 224.452 220.64 209.152H246.65C244.61 226.152 243.59 239.412 243.59 248.932C243.59 255.188 243.964 260.764 244.712 265.66C245.528 270.488 246.752 275.316 248.384 280.144L221.66 282.286ZM281.84 281.878C270.824 281.878 262.8 279.736 257.768 275.452C252.736 271.168 250.22 264.606 250.22 255.766C250.22 253.25 250.424 250.564 250.832 247.708C258.788 247.028 265.928 245.022 272.252 241.69C271.912 244.614 271.742 246.858 271.742 248.422C271.742 251.074 272.082 253.08 272.762 254.44C273.51 255.8 274.598 256.718 276.026 257.194C277.454 257.67 279.392 257.908 281.84 257.908C287.892 257.908 293.264 257.738 297.956 257.398C302.716 256.99 308.258 256.038 314.582 254.542C313.902 257.058 313.358 260.696 312.95 265.456C312.61 270.148 312.44 275.01 312.44 280.042C306.864 280.79 301.764 281.3 297.14 281.572C292.516 281.776 287.416 281.878 281.84 281.878Z"/>
</mask>
<path d="M106.298 257.602C105.414 259.846 103.646 265.048 100.994 273.208L98.3421 281.47C88.7541 275.554 80.2881 270.76 72.9441 267.088C69.4761 278.172 60.5341 283.714 46.1181 283.714C38.9101 283.714 32.7561 282.796 27.6561 280.96C22.6241 279.124 18.7821 276.574 16.1301 273.31C13.4781 269.978 12.1521 266.136 12.1521 261.784C12.1521 247.776 21.6381 240.772 40.6101 240.772C43.4661 240.772 46.6621 240.942 50.1981 241.282V204.664H74.6781V215.68H104.564V236.182H74.6781V246.076C82.8381 248.388 93.3781 252.23 106.298 257.602ZM50.1981 258.316C47.4781 257.772 45.1321 257.5 43.1601 257.5C41.2561 257.5 39.8281 257.772 38.8761 258.316C37.9241 258.792 37.4481 259.438 37.4481 260.254C37.4481 261.07 38.0261 261.784 39.1821 262.396C40.3381 263.008 42.0381 263.314 44.2821 263.314C46.3901 263.314 47.8861 263.042 48.7701 262.498C49.7221 261.886 50.1981 260.73 50.1981 259.03V258.316ZM196.16 227.41C187.32 225.846 178.582 224.69 169.946 223.942C161.378 223.194 152.266 222.82 142.61 222.82C136.422 222.82 131.662 222.888 128.33 223.024L129.452 204.358H135.776C147.336 204.358 158.216 204.834 168.416 205.786C178.616 206.67 189.326 208.2 200.546 210.376L196.16 227.41ZM136.388 284.53C134.484 279.43 132.546 275.01 130.574 271.27C128.67 267.53 125.984 264.028 122.516 260.764C138.224 260.492 150.09 260.084 158.114 259.54C166.138 258.996 171.748 258.18 174.944 257.092C178.208 255.936 179.84 254.304 179.84 252.196C179.84 249.272 178.548 247.436 175.964 246.688C173.448 245.872 169.844 245.464 165.152 245.464C150.192 245.464 134.926 249.102 119.354 256.378L114.968 232.918C126.868 230.198 136.014 228.362 142.406 227.41C148.798 226.458 155.938 225.982 163.826 225.982C177.902 225.982 188.612 228.022 195.956 232.102C203.3 236.114 206.972 242.71 206.972 251.89C206.972 262.09 201.362 269.876 190.142 275.248C178.922 280.62 161.004 283.714 136.388 284.53ZM254.096 211.804C267.968 209.152 281.67 207.826 295.202 207.826C299.282 207.826 303.872 207.996 308.972 208.336C308.972 213.164 309.04 217.346 309.176 220.882C309.312 224.35 309.652 227.852 310.196 231.388C302.376 230.436 295.202 229.96 288.674 229.96C278.202 229.96 267.084 231.184 255.32 233.632L254.096 211.804ZM221.66 282.286C220.436 276.438 219.518 270.93 218.906 265.762C218.362 260.526 218.09 254.644 218.09 248.116C218.09 237.44 218.94 224.452 220.64 209.152H246.65C244.61 226.152 243.59 239.412 243.59 248.932C243.59 255.188 243.964 260.764 244.712 265.66C245.528 270.488 246.752 275.316 248.384 280.144L221.66 282.286ZM281.84 281.878C270.824 281.878 262.8 279.736 257.768 275.452C252.736 271.168 250.22 264.606 250.22 255.766C250.22 253.25 250.424 250.564 250.832 247.708C258.788 247.028 265.928 245.022 272.252 241.69C271.912 244.614 271.742 246.858 271.742 248.422C271.742 251.074 272.082 253.08 272.762 254.44C273.51 255.8 274.598 256.718 276.026 257.194C277.454 257.67 279.392 257.908 281.84 257.908C287.892 257.908 293.264 257.738 297.956 257.398C302.716 256.99 308.258 256.038 314.582 254.542C313.902 257.058 313.358 260.696 312.95 265.456C312.61 270.148 312.44 275.01 312.44 280.042C306.864 280.79 301.764 281.3 297.14 281.572C292.516 281.776 287.416 281.878 281.84 281.878Z" fill="#FFCE00"/>
<path d="M106.298 257.602L110.95 259.435L112.749 254.869L108.218 252.985L106.298 257.602ZM100.994 273.208L96.239 271.663L96.2361 271.671L96.2334 271.68L100.994 273.208ZM98.3421 281.47L95.7166 285.725L101.151 289.078L103.103 282.998L98.3421 281.47ZM72.9441 267.088L75.1802 262.616L69.9263 259.989L68.1722 265.595L72.9441 267.088ZM27.6561 280.96L25.9423 285.657L25.9524 285.661L25.9625 285.664L27.6561 280.96ZM16.1301 273.31L12.218 276.424L12.2337 276.443L12.2496 276.463L16.1301 273.31ZM50.1981 241.282L49.7196 246.259L55.1981 246.786V241.282H50.1981ZM50.1981 204.664V199.664H45.1981V204.664H50.1981ZM74.6781 204.664H79.6781V199.664H74.6781V204.664ZM74.6781 215.68H69.6781V220.68H74.6781V215.68ZM104.564 215.68H109.564V210.68H104.564V215.68ZM104.564 236.182V241.182H109.564V236.182H104.564ZM74.6781 236.182V231.182H69.6781V236.182H74.6781ZM74.6781 246.076H69.6781V249.856L73.3151 250.887L74.6781 246.076ZM50.1981 258.316H55.1981V254.217L51.1787 253.413L50.1981 258.316ZM38.8761 258.316L41.1122 262.788L41.2363 262.726L41.3568 262.657L38.8761 258.316ZM48.7701 262.498L51.3906 266.756L51.4325 266.73L51.4739 266.704L48.7701 262.498ZM106.298 257.602L101.646 255.769C100.695 258.185 98.8772 263.545 96.239 271.663L100.994 273.208L105.749 274.753C108.415 266.551 110.134 261.507 110.95 259.435L106.298 257.602ZM100.994 273.208L96.2334 271.68L93.5814 279.942L98.3421 281.47L103.103 282.998L105.755 274.736L100.994 273.208ZM98.3421 281.47L100.968 277.215C91.296 271.247 82.6957 266.374 75.1802 262.616L72.9441 267.088L70.7081 271.56C77.8806 275.146 86.2122 279.861 95.7166 285.725L98.3421 281.47ZM72.9441 267.088L68.1722 265.595C66.7567 270.119 64.3447 273.236 61.0026 275.308C57.5641 277.439 52.7276 278.714 46.1181 278.714V283.714V288.714C53.9247 288.714 60.7671 287.218 66.2706 283.807C71.8706 280.337 75.6635 275.141 77.716 268.581L72.9441 267.088ZM46.1181 283.714V278.714C39.3085 278.714 33.7604 277.843 29.3497 276.256L27.6561 280.96L25.9625 285.664C31.7519 287.749 38.5117 288.714 46.1181 288.714V283.714ZM27.6561 280.96L29.3699 276.263C24.9577 274.653 21.9571 272.553 20.0107 270.157L16.1301 273.31L12.2496 276.463C15.6072 280.595 20.2906 283.595 25.9423 285.657L27.6561 280.96ZM16.1301 273.31L20.0422 270.196C18.1112 267.77 17.1521 265.032 17.1521 261.784H12.1521H7.15212C7.15212 267.24 8.84504 272.186 12.218 276.424L16.1301 273.31ZM12.1521 261.784H17.1521C17.1521 256.03 19.0193 252.423 22.2366 250.047C25.7374 247.463 31.5928 245.772 40.6101 245.772V240.772V235.772C30.6554 235.772 22.2818 237.583 16.2967 242.003C10.0279 246.631 7.15212 253.53 7.15212 261.784H12.1521ZM40.6101 240.772V245.772C43.2734 245.772 46.3061 245.931 49.7196 246.259L50.1981 241.282L50.6767 236.305C47.0181 235.953 43.6588 235.772 40.6101 235.772V240.772ZM50.1981 241.282H55.1981V204.664H50.1981H45.1981V241.282H50.1981ZM50.1981 204.664V209.664H74.6781V204.664V199.664H50.1981V204.664ZM74.6781 204.664H69.6781V215.68H74.6781H79.6781V204.664H74.6781ZM74.6781 215.68V220.68H104.564V215.68V210.68H74.6781V215.68ZM104.564 215.68H99.5641V236.182H104.564H109.564V215.68H104.564ZM104.564 236.182V231.182H74.6781V236.182V241.182H104.564V236.182ZM74.6781 236.182H69.6781V246.076H74.6781H79.6781V236.182H74.6781ZM74.6781 246.076L73.3151 250.887C81.2043 253.122 91.5398 256.881 104.379 262.219L106.298 257.602L108.218 252.985C95.2164 247.579 84.4719 243.654 76.0411 241.265L74.6781 246.076ZM50.1981 258.316L51.1787 253.413C48.255 252.828 45.564 252.5 43.1601 252.5V257.5V262.5C44.7003 262.5 46.7012 262.716 49.2175 263.219L50.1981 258.316ZM43.1601 257.5V252.5C40.9438 252.5 38.4725 252.788 36.3954 253.975L38.8761 258.316L41.3568 262.657C41.2252 262.732 41.2596 262.68 41.5967 262.616C41.9246 262.553 42.4316 262.5 43.1601 262.5V257.5ZM38.8761 258.316L36.6401 253.844C34.6021 254.863 32.4481 256.949 32.4481 260.254H37.4481H42.4481C42.4481 260.894 42.237 261.572 41.8304 262.123C41.4719 262.61 41.1219 262.783 41.1122 262.788L38.8761 258.316ZM37.4481 260.254H32.4481C32.4481 263.873 35.1093 265.897 36.8427 266.815L39.1821 262.396L41.5216 257.977C41.3061 257.863 41.4928 257.916 41.7679 258.256C42.1035 258.67 42.4481 259.373 42.4481 260.254H37.4481ZM39.1821 262.396L36.8427 266.815C39.0638 267.991 41.7303 268.314 44.2821 268.314V263.314V258.314C43.3743 258.314 42.696 258.251 42.2099 258.164C41.9711 258.121 41.7984 258.075 41.6812 258.037C41.5637 258 41.5169 257.975 41.5216 257.977L39.1821 262.396ZM44.2821 263.314V268.314C46.5388 268.314 49.2491 268.074 51.3906 266.756L48.7701 262.498L46.1496 258.24C46.4224 258.072 46.4862 258.119 46.0907 258.191C45.7262 258.257 45.1418 258.314 44.2821 258.314V263.314ZM48.7701 262.498L51.4739 266.704C54.4832 264.769 55.1981 261.521 55.1981 259.03H50.1981H45.1981C45.1981 259.447 45.135 259.469 45.2177 259.268C45.2641 259.156 45.352 258.985 45.5052 258.795C45.6612 258.602 45.8528 258.429 46.0663 258.292L48.7701 262.498ZM50.1981 259.03H55.1981V258.316H50.1981H45.1981V259.03H50.1981ZM196.16 227.41L195.289 232.334L199.848 233.14L201.002 228.657L196.16 227.41ZM169.946 223.942L169.511 228.923L169.515 228.923L169.946 223.942ZM128.33 223.024L123.339 222.724L123.007 228.245L128.534 228.02L128.33 223.024ZM129.452 204.358V199.358H124.744L124.461 204.058L129.452 204.358ZM168.416 205.786L167.951 210.764L167.968 210.766L167.984 210.767L168.416 205.786ZM200.546 210.376L205.388 211.623L206.713 206.479L201.498 205.467L200.546 210.376ZM136.388 284.53L131.704 286.279L132.961 289.646L136.554 289.527L136.388 284.53ZM130.574 271.27L126.118 273.538L126.135 273.57L126.151 273.602L130.574 271.27ZM122.516 260.764L122.43 255.765L110.135 255.978L119.089 264.405L122.516 260.764ZM158.114 259.54L158.452 264.529L158.114 259.54ZM174.944 257.092L176.555 261.825L176.584 261.815L176.613 261.805L174.944 257.092ZM175.964 246.688L174.422 251.444L174.497 251.469L174.574 251.491L175.964 246.688ZM119.354 256.378L114.439 257.297L115.625 263.639L121.471 260.908L119.354 256.378ZM114.968 232.918L113.854 228.044L109.17 229.114L110.053 233.837L114.968 232.918ZM195.956 232.102L193.528 236.473L193.543 236.481L193.559 236.49L195.956 232.102ZM190.142 275.248L187.983 270.738L190.142 275.248ZM196.16 227.41L197.031 222.486C188.051 220.898 179.166 219.722 170.378 218.961L169.946 223.942L169.515 228.923C177.998 229.658 186.589 230.794 195.289 232.334L196.16 227.41ZM169.946 223.942L170.381 218.961C161.652 218.199 152.394 217.82 142.61 217.82V222.82V227.82C152.138 227.82 161.104 228.189 169.511 228.923L169.946 223.942ZM142.61 222.82V217.82C136.401 217.82 131.561 217.888 128.126 218.028L128.33 223.024L128.534 228.02C131.763 227.888 136.443 227.82 142.61 227.82V222.82ZM128.33 223.024L133.321 223.324L134.443 204.658L129.452 204.358L124.461 204.058L123.339 222.724L128.33 223.024ZM129.452 204.358V209.358H135.776V204.358V199.358H129.452V204.358ZM135.776 204.358V209.358C147.2 209.358 157.924 209.828 167.951 210.764L168.416 205.786L168.881 200.808C158.508 199.84 147.472 199.358 135.776 199.358V204.358ZM168.416 205.786L167.984 210.767C177.991 211.635 188.527 213.138 199.594 215.285L200.546 210.376L201.498 205.467C190.126 203.262 179.241 201.705 168.848 200.805L168.416 205.786ZM200.546 210.376L195.704 209.129L191.318 226.163L196.16 227.41L201.002 228.657L205.388 211.623L200.546 210.376ZM136.388 284.53L141.072 282.781C139.114 277.535 137.092 272.911 134.997 268.938L130.574 271.27L126.151 273.602C128 277.109 129.855 281.325 131.704 286.279L136.388 284.53ZM130.574 271.27L135.03 269.002C132.832 264.684 129.775 260.729 125.943 257.123L122.516 260.764L119.089 264.405C122.194 267.327 124.508 270.376 126.118 273.538L130.574 271.27ZM122.516 260.764L122.603 265.763C138.332 265.491 150.299 265.081 158.452 264.529L158.114 259.54L157.776 254.551C149.881 255.087 138.117 255.493 122.43 255.765L122.516 260.764ZM158.114 259.54L158.452 264.529C166.478 263.984 172.677 263.145 176.555 261.825L174.944 257.092L173.333 252.359C170.819 253.215 165.798 254.008 157.776 254.551L158.114 259.54ZM174.944 257.092L176.613 261.805C180.413 260.459 184.84 257.638 184.84 252.196H179.84H174.84C174.84 252.058 174.871 251.872 174.951 251.688C175.028 251.512 175.104 251.442 175.081 251.465C175.049 251.497 174.918 251.617 174.612 251.791C174.307 251.964 173.873 252.167 173.275 252.379L174.944 257.092ZM179.84 252.196H184.84C184.84 250.014 184.355 247.731 182.96 245.749C181.537 243.726 179.514 242.51 177.354 241.885L175.964 246.688L174.574 251.491C174.688 251.524 174.767 251.555 174.816 251.577C174.866 251.599 174.886 251.613 174.886 251.613C174.887 251.613 174.883 251.611 174.876 251.605C174.868 251.599 174.859 251.591 174.848 251.58C174.824 251.558 174.802 251.531 174.782 251.503C174.679 251.357 174.84 251.454 174.84 252.196H179.84ZM175.964 246.688L177.507 241.932C174.249 240.875 170.029 240.464 165.152 240.464V245.464V250.464C169.659 250.464 172.647 250.869 174.422 251.444L175.964 246.688ZM165.152 245.464V240.464C149.359 240.464 133.374 244.309 117.238 251.848L119.354 256.378L121.471 260.908C136.479 253.895 151.025 250.464 165.152 250.464V245.464ZM119.354 256.378L124.269 255.459L119.883 231.999L114.968 232.918L110.053 233.837L114.439 257.297L119.354 256.378ZM114.968 232.918L116.082 237.792C127.946 235.081 136.943 233.279 143.143 232.355L142.406 227.41L141.67 222.465C135.085 223.445 125.79 225.315 113.854 228.044L114.968 232.918ZM142.406 227.41L143.143 232.355C149.245 231.447 156.133 230.982 163.826 230.982V225.982V220.982C155.743 220.982 148.352 221.469 141.67 222.465L142.406 227.41ZM163.826 225.982V230.982C177.559 230.982 187.27 232.996 193.528 236.473L195.956 232.102L198.384 227.731C189.954 223.048 178.246 220.982 163.826 220.982V225.982ZM195.956 232.102L193.559 236.49C196.495 238.094 198.522 240.105 199.849 242.49C201.191 244.899 201.972 247.968 201.972 251.89H206.972H211.972C211.972 246.632 210.917 241.812 208.587 237.626C206.243 233.415 202.761 230.122 198.353 227.714L195.956 232.102ZM206.972 251.89H201.972C201.972 256.011 200.86 259.47 198.708 262.457C196.516 265.498 193.055 268.31 187.983 270.738L190.142 275.248L192.301 279.758C198.449 276.814 203.403 273.047 206.821 268.302C210.279 263.503 211.972 257.969 211.972 251.89H206.972ZM190.142 275.248L187.983 270.738C177.74 275.643 160.693 278.722 136.222 279.533L136.388 284.53L136.554 289.527C161.316 288.706 180.104 285.597 192.301 279.758L190.142 275.248ZM254.096 211.804L253.157 206.893L248.859 207.715L249.104 212.084L254.096 211.804ZM308.972 208.336H313.972V203.658L309.305 203.347L308.972 208.336ZM309.176 220.882L304.18 221.074L304.18 221.078L309.176 220.882ZM310.196 231.388L309.592 236.351L316.141 237.149L315.138 230.628L310.196 231.388ZM255.32 233.632L250.328 233.912L250.653 239.71L256.339 238.527L255.32 233.632ZM221.66 282.286L216.766 283.31L217.669 287.622L222.06 287.27L221.66 282.286ZM218.906 265.762L213.933 266.279L213.937 266.314L213.941 266.35L218.906 265.762ZM220.64 209.152V204.152H216.165L215.671 208.6L220.64 209.152ZM246.65 209.152L251.615 209.748L252.286 204.152H246.65V209.152ZM244.712 265.66L239.769 266.415L239.775 266.454L239.782 266.493L244.712 265.66ZM248.384 280.144L248.784 285.128L255.174 284.616L253.121 278.543L248.384 280.144ZM257.768 275.452L254.527 279.259L257.768 275.452ZM250.832 247.708L250.406 242.726L246.445 243.065L245.882 247.001L250.832 247.708ZM272.252 241.69L277.219 242.268L278.314 232.844L269.921 237.266L272.252 241.69ZM272.762 254.44L268.29 256.676L268.334 256.764L268.381 256.85L272.762 254.44ZM276.026 257.194L274.445 261.937L276.026 257.194ZM297.956 257.398L298.318 262.385L298.35 262.383L298.383 262.38L297.956 257.398ZM314.582 254.542L319.409 255.847L321.599 247.744L313.431 249.676L314.582 254.542ZM312.95 265.456L307.968 265.029L307.966 265.062L307.963 265.095L312.95 265.456ZM312.44 280.042L313.105 284.998L317.44 284.416V280.042H312.44ZM297.14 281.572L297.361 286.567L297.397 286.566L297.434 286.563L297.14 281.572ZM254.096 211.804L255.035 216.715C268.611 214.12 281.999 212.826 295.202 212.826V207.826V202.826C281.342 202.826 267.325 204.184 253.157 206.893L254.096 211.804ZM295.202 207.826V212.826C299.148 212.826 303.624 212.991 308.64 213.325L308.972 208.336L309.305 203.347C304.12 203.001 299.417 202.826 295.202 202.826V207.826ZM308.972 208.336H303.972C303.972 213.207 304.041 217.456 304.18 221.074L309.176 220.882L314.172 220.69C314.04 217.236 313.972 213.121 313.972 208.336H308.972ZM309.176 220.882L304.18 221.078C304.324 224.741 304.682 228.431 305.254 232.148L310.196 231.388L315.138 230.628C314.622 227.273 314.301 223.959 314.172 220.686L309.176 220.882ZM310.196 231.388L310.8 226.425C302.819 225.453 295.44 224.96 288.674 224.96V229.96V234.96C294.964 234.96 301.933 235.419 309.592 236.351L310.196 231.388ZM288.674 229.96V224.96C277.814 224.96 266.353 226.229 254.301 228.737L255.32 233.632L256.339 238.527C267.816 236.139 278.59 234.96 288.674 234.96V229.96ZM255.32 233.632L260.312 233.352L259.088 211.524L254.096 211.804L249.104 212.084L250.328 233.912L255.32 233.632ZM221.66 282.286L226.554 281.262C225.356 275.537 224.464 270.176 223.871 265.174L218.906 265.762L213.941 266.35C214.572 271.684 215.516 277.339 216.766 283.31L221.66 282.286ZM218.906 265.762L223.879 265.245C223.357 260.216 223.09 254.51 223.09 248.116H218.09H213.09C213.09 254.778 213.367 260.836 213.933 266.279L218.906 265.762ZM218.09 248.116H223.09C223.09 237.685 223.922 224.893 225.61 209.704L220.64 209.152L215.671 208.6C213.958 224.011 213.09 237.195 213.09 248.116H218.09ZM220.64 209.152V214.152H246.65V209.152V204.152H220.64V209.152ZM246.65 209.152L241.686 208.556C239.638 225.625 238.59 239.115 238.59 248.932H243.59H248.59C248.59 239.709 249.583 226.679 251.615 209.748L246.65 209.152ZM243.59 248.932H238.59C238.59 255.378 238.975 261.214 239.769 266.415L244.712 265.66L249.655 264.905C248.953 260.314 248.59 254.998 248.59 248.932H243.59ZM244.712 265.66L239.782 266.493C240.644 271.592 241.934 276.677 243.647 281.745L248.384 280.144L253.121 278.543C251.57 273.955 250.412 269.384 249.642 264.827L244.712 265.66ZM248.384 280.144L247.985 275.16L221.261 277.302L221.66 282.286L222.06 287.27L248.784 285.128L248.384 280.144ZM281.84 281.878V276.878C271.28 276.878 264.703 274.789 261.009 271.645L257.768 275.452L254.527 279.259C260.897 284.683 270.369 286.878 281.84 286.878V281.878ZM257.768 275.452L261.009 271.645C257.439 268.605 255.22 263.665 255.22 255.766H250.22H245.22C245.22 265.547 248.034 273.731 254.527 279.259L257.768 275.452ZM250.22 255.766H255.22C255.22 253.518 255.403 251.07 255.782 248.415L250.832 247.708L245.882 247.001C245.446 250.058 245.22 252.982 245.22 255.766H250.22ZM250.832 247.708L251.258 252.69C259.802 251.96 267.602 249.792 274.583 246.114L272.252 241.69L269.921 237.266C264.254 240.252 257.774 242.096 250.406 242.726L250.832 247.708ZM272.252 241.69L267.286 241.112C266.939 244.093 266.742 246.565 266.742 248.422H271.742H276.742C276.742 247.151 276.885 245.135 277.219 242.268L272.252 241.69ZM271.742 248.422H266.742C266.742 251.353 267.094 254.283 268.29 256.676L272.762 254.44L277.234 252.204C277.071 251.877 276.742 250.795 276.742 248.422H271.742ZM272.762 254.44L268.381 256.85C269.715 259.274 271.783 261.05 274.445 261.937L276.026 257.194L277.607 252.451C277.413 252.386 277.306 252.326 277.143 252.03L272.762 254.44ZM276.026 257.194L274.445 261.937C276.601 262.656 279.147 262.908 281.84 262.908V257.908V252.908C279.637 252.908 278.307 252.684 277.607 252.451L276.026 257.194ZM281.84 257.908V262.908C287.981 262.908 293.477 262.736 298.318 262.385L297.956 257.398L297.595 252.411C293.051 252.74 287.804 252.908 281.84 252.908V257.908ZM297.956 257.398L298.383 262.38C303.456 261.945 309.25 260.941 315.733 259.408L314.582 254.542L313.431 249.676C307.267 251.135 301.976 252.035 297.529 252.416L297.956 257.398ZM314.582 254.542L309.755 253.237C308.958 256.186 308.385 260.174 307.968 265.029L312.95 265.456L317.932 265.883C318.332 261.218 318.846 257.93 319.409 255.847L314.582 254.542ZM312.95 265.456L307.963 265.095C307.614 269.915 307.44 274.898 307.44 280.042H312.44H317.44C317.44 275.122 317.606 270.381 317.937 265.817L312.95 265.456ZM312.44 280.042L311.775 275.086C306.298 275.821 301.323 276.317 296.846 276.581L297.14 281.572L297.434 286.563C302.205 286.283 307.431 285.759 313.105 284.998L312.44 280.042ZM297.14 281.572L296.92 276.577C292.382 276.777 287.357 276.878 281.84 276.878V281.878V286.878C287.475 286.878 292.65 286.775 297.361 286.567L297.14 281.572Z" fill="#202020" mask="url(#path-3-outside-2_1105_150)"/>
</g>
<defs>
<filter id="filter0_d_1105_150" x="0.311707" y="0.814529" width="427.167" height="196.852" filterUnits="userSpaceOnUse" color-interpolation-filters="sRGB">
<feFlood flood-opacity="0" result="BackgroundImageFix"/>
<feColorMatrix in="SourceAlpha" type="matrix" values="0 0 0 0 0 0 0 0 0 0 0 0 0 0 0 0 0 0 127 0" result="hardAlpha"/>
<feOffset dx="4" dy="4"/>
<feComposite in2="hardAlpha" operator="out"/>
<feColorMatrix type="matrix" values="0 0 0 0 0.12549 0 0 0 0 0.12549 0 0 0 0 0.12549 0 0 0 1 0"/>
<feBlend mode="normal" in2="BackgroundImageFix" result="effect1_dropShadow_1105_150"/>
<feBlend mode="normal" in="SourceGraphic" in2="effect1_dropShadow_1105_150" result="shape"/>
</filter>
<filter id="filter1_d_1105_150" x="7.1521" y="199.358" width="318.447" height="94.2884" filterUnits="userSpaceOnUse" color-interpolation-filters="sRGB">
<feFlood flood-opacity="0" result="BackgroundImageFix"/>
<feColorMatrix in="SourceAlpha" type="matrix" values="0 0 0 0 0 0 0 0 0 0 0 0 0 0 0 0 0 0 127 0" result="hardAlpha"/>
<feOffset dx="4" dy="4"/>
<feComposite in2="hardAlpha" operator="out"/>
<feColorMatrix type="matrix" values="0 0 0 0 0.12549 0 0 0 0 0.12549 0 0 0 0 0.12549 0 0 0 1 0"/>
<feBlend mode="normal" in2="BackgroundImageFix" result="effect1_dropShadow_1105_150"/>
<feBlend mode="normal" in="SourceGraphic" in2="effect1_dropShadow_1105_150" result="shape"/>
</filter>
</defs>
</svg>
