<svg width="148" height="125" viewBox="0 0 148 125" fill="none" xmlns="http://www.w3.org/2000/svg">
<g clip-path="url(#clip0_1088_185)">
<path d="M133.772 78.009C121.693 91.4812 102.889 105.112 88.0037 115.608C84.5968 118.013 78.2635 123.096 74.8503 124.657C74.4647 124.835 74.1739 125.146 73.6999 124.917C60.4327 115.906 47.2413 106.686 34.7894 96.5642C14.7906 80.2998 -5.16393 62.6077 1.20737 33.6834C4.48783 18.7961 16.7185 4.32132 31.8313 0.856496C46.9442 -2.60832 62.2214 4.9559 73.9274 13.8591C90.8038 1.40858 111.378 -6.58715 130.075 7.48788C153.935 25.4529 152.741 56.8393 133.766 78.009H133.772ZM43.0253 41.5586C40.5603 39.2487 41.8876 34.6607 37.6085 35.511C34.4671 36.1329 36.6857 41.6665 37.9119 43.3989C42.7915 50.2968 54.093 50.2651 58.6186 43.0435C59.7121 41.2984 61.7663 36.0124 58.6376 35.4349C54.8009 34.7241 55.6731 38.6332 53.9792 40.8161C51.5267 43.9764 45.9076 44.2556 43.0253 41.5649V41.5586ZM105.076 41.5586C102.2 44.2492 96.5746 43.97 94.1222 40.8098C92.4282 38.6268 93.3005 34.7178 89.4638 35.4285C86.335 36.006 88.383 41.2921 89.4828 43.0372C94.0084 50.2587 105.31 50.2904 110.189 43.3925C111.416 41.6601 113.634 36.1266 110.493 35.5047C106.214 34.6607 107.541 39.2487 105.076 41.5523V41.5586ZM26.4208 61.5987C20.7384 66.9419 29.2525 76.0101 34.9664 70.0069C40.1241 64.5812 32.0273 56.3253 26.4208 61.5987ZM121.687 61.5987C116.08 56.3253 107.984 64.5812 113.141 70.0069C118.855 76.0164 127.369 66.9419 121.687 61.5987ZM59.4213 61.8906C56.2483 62.3919 57.4619 65.971 58.6755 67.7097C63.8964 75.1597 76.3293 76.2512 83.9774 72.3104C86.531 70.9969 93.2246 65.3491 89.8051 62.5125C86.9355 60.1328 85.7219 64.5622 84.2618 65.99C79.5718 70.5717 68.2514 70.5463 63.6752 65.8187C62.4553 64.5559 61.7916 61.5099 59.4213 61.8843V61.8906Z" fill="white"/>
</g>
<defs>
<clipPath id="clip0_1088_185">
<rect width="148" height="125" fill="white"/>
</clipPath>
</defs>
</svg>
