<svg width="166" height="98" viewBox="0 0 166 98" fill="none" xmlns="http://www.w3.org/2000/svg">
<g clip-path="url(#clip0_1088_173)">
<path d="M67.5935 84.4543V8.33272C38.468 -5.89228 2.0332 8.33272 2.0332 8.33272V95.9873C2.0332 95.9873 22.543 83.302 67.5935 95.9873C67.5935 95.9873 99.1385 85.6066 131.283 95.9873V9.49004C131.283 9.49004 113.03 -3.58266 76.9157 6.02814" stroke="white" stroke-width="8" stroke-linecap="round" stroke-linejoin="round"/>
<path d="M154.843 14.3557L107.205 54.3387L100.989 68.9511L116.527 65.3584L163.967 24.6609L154.843 14.3557Z" fill="#127DFF"/>
<path d="M154.843 14.3557L107.205 54.3387L100.989 68.9511L116.527 65.3584L163.967 24.6609L154.843 14.3557Z" stroke="white" stroke-width="8" stroke-linecap="round" stroke-linejoin="round"/>
<path d="M107.205 54.3389L116.527 65.3586" stroke="white" stroke-width="8" stroke-linecap="round" stroke-linejoin="round"/>
</g>
<defs>
<clipPath id="clip0_1088_173">
<rect width="166" height="98" fill="white"/>
</clipPath>
</defs>
</svg>
