<svg width="151" height="69" viewBox="0 0 151 69" fill="none" xmlns="http://www.w3.org/2000/svg">
<circle cx="34.7797" cy="34.7826" r="9.89754" transform="rotate(-180 34.7797 34.7826)" fill="#FF5824"/>
<ellipse cx="34.4967" cy="57.9713" rx="7.35246" ry="11.0287" transform="rotate(-180 34.4967 57.9713)" fill="#FF5824"/>
<ellipse cx="34.4967" cy="11.0287" rx="7.35246" ry="11.0287" transform="rotate(-180 34.4967 11.0287)" fill="#FF5824"/>
<ellipse cx="11.0287" cy="34.4998" rx="7.35246" ry="11.0287" transform="rotate(-90 11.0287 34.4998)" fill="#FF5824"/>
<ellipse cx="57.9681" cy="34.4998" rx="7.35246" ry="11.0287" transform="rotate(-90 57.9681 34.4998)" fill="#FF5824"/>
<ellipse cx="17.9003" cy="51.0966" rx="7.35246" ry="11.0287" transform="rotate(-135 17.9003 51.0966)" fill="#FF5824"/>
<ellipse cx="51.0936" cy="17.9032" rx="7.35246" ry="11.0287" transform="rotate(-135 51.0936 17.9032)" fill="#FF5824"/>
<ellipse cx="17.9027" cy="17.9032" rx="7.35246" ry="11.0287" transform="rotate(-45 17.9027 17.9032)" fill="#FF5824"/>
<ellipse cx="51.0936" cy="51.0966" rx="7.35246" ry="11.0287" transform="rotate(-45 51.0936 51.0966)" fill="#FF5824"/>
<circle cx="123.986" cy="34.6625" r="8.03281" transform="rotate(165 123.986 34.6625)" fill="#FF5824"/>
<ellipse cx="128.636" cy="52.9003" rx="5.96723" ry="8.95085" transform="rotate(165 128.636 52.9003)" fill="#FF5824"/>
<ellipse cx="118.775" cy="16.1" rx="5.96723" ry="8.95085" transform="rotate(165 118.775 16.1)" fill="#FF5824"/>
<ellipse cx="105.305" cy="39.4304" rx="5.96723" ry="8.95085" transform="rotate(-105 105.305 39.4304)" fill="#FF5824"/>
<ellipse cx="142.105" cy="29.5698" rx="5.96723" ry="8.95085" transform="rotate(-105 142.105 29.5698)" fill="#FF5824"/>
<ellipse cx="114.181" cy="50.9974" rx="5.96723" ry="8.95085" transform="rotate(-150 114.181 50.9974)" fill="#FF5824"/>
<ellipse cx="133.23" cy="18.003" rx="5.96723" ry="8.95085" transform="rotate(-150 133.23 18.003)" fill="#FF5824"/>
<ellipse cx="107.208" cy="24.9754" rx="5.96723" ry="8.95085" transform="rotate(-60 107.208 24.9754)" fill="#FF5824"/>
<ellipse cx="140.202" cy="44.0249" rx="5.96723" ry="8.95085" transform="rotate(-60 140.202 44.0249)" fill="#FF5824"/>
</svg>
