<svg width="136" height="123" viewBox="0 0 136 123" fill="none" xmlns="http://www.w3.org/2000/svg">
<g clip-path="url(#clip0_1088_179)">
<path d="M9.72434 121.938C6.78583 118.964 12.4429 116.8 14.1958 115.539C19.5884 111.658 24.5603 106.876 27.7952 100.992C5.27196 87.2452 -7.24379 61.2503 4.48156 35.6316C27.5307 -14.7376 119.303 -11.2455 134.162 43.1754C144.969 82.7594 106.118 110.327 71.0027 111.751C68.3638 111.857 62.4486 111.041 60.5363 111.481C59.2838 111.771 55.0864 114.465 53.4131 115.227C41.7292 120.552 24.4934 124.112 11.7003 122.678C11.1745 122.62 10.0781 122.292 9.72434 121.935V121.938ZM32.5854 111.735C41.8153 109.973 50.3408 106.442 58.3117 101.519C87.088 106.291 128.431 87.3256 126.28 53.3753C124.364 23.1518 90.119 8.0835 63.6437 9.46621C37.1812 10.8521 5.95081 30.3548 9.99843 60.7229C12.3569 78.4087 26.0805 89.6215 40.8496 97.294L32.5822 111.735H32.5854Z" fill="white"/>
<path d="M37.2795 51.0413L100.945 50.9641C106.879 51.604 106.879 60.2926 100.945 60.9357H37.8404C32.0367 60.0996 31.5937 52.5205 37.2795 51.0445V51.0413Z" fill="white"/>
<path d="M37.9234 28.2169L92.3368 28.1365C99.3165 28.8439 98.9882 37.4456 93.2961 38.1016L36.9003 38.0855C31.546 36.2462 32.3364 28.9018 37.9234 28.2169Z" fill="white"/>
<path d="M36.6326 73.8624L78.935 73.8142C84.9618 76.1905 83.6168 83.7569 77.0386 83.7569C64.7619 83.7569 52.6764 83.7215 38.5193 83.7215C32.7124 83.4514 31.2049 76.1648 36.6357 73.8624H36.6326Z" fill="white"/>
</g>
<defs>
<clipPath id="clip0_1088_179">
<rect width="136" height="123" fill="white"/>
</clipPath>
</defs>
</svg>
