<svg width="151" height="69" viewBox="0 0 151 69" fill="none" xmlns="http://www.w3.org/2000/svg">
<circle cx="116.11" cy="34.2171" r="9.89754" fill="#FF5824"/>
<ellipse cx="116.393" cy="11.0287" rx="7.35246" ry="11.0287" fill="#FF5824"/>
<ellipse cx="116.393" cy="57.9713" rx="7.35246" ry="11.0287" fill="#FF5824"/>
<ellipse cx="139.864" cy="34.4999" rx="7.35246" ry="11.0287" transform="rotate(90 139.864 34.4999)" fill="#FF5824"/>
<ellipse cx="92.9215" cy="34.4999" rx="7.35246" ry="11.0287" transform="rotate(90 92.9215 34.4999)" fill="#FF5824"/>
<ellipse cx="132.989" cy="17.9032" rx="7.35246" ry="11.0287" transform="rotate(45 132.989 17.9032)" fill="#FF5824"/>
<ellipse cx="99.796" cy="51.0968" rx="7.35246" ry="11.0287" transform="rotate(45 99.796 51.0968)" fill="#FF5824"/>
<ellipse cx="132.989" cy="51.0968" rx="7.35246" ry="11.0287" transform="rotate(135 132.989 51.0968)" fill="#FF5824"/>
<ellipse cx="99.796" cy="17.9032" rx="7.35246" ry="11.0287" transform="rotate(135 99.796 17.9032)" fill="#FF5824"/>
<circle cx="26.9036" cy="34.3375" r="8.03281" transform="rotate(-15 26.9036 34.3375)" fill="#FF5824"/>
<ellipse cx="22.2539" cy="16.0997" rx="5.96723" ry="8.95085" transform="rotate(-15 22.2539 16.0997)" fill="#FF5824"/>
<ellipse cx="32.1147" cy="52.9" rx="5.96723" ry="8.95085" transform="rotate(-15 32.1147 52.9)" fill="#FF5824"/>
<ellipse cx="45.5846" cy="29.5696" rx="5.96723" ry="8.95085" transform="rotate(75 45.5846 29.5696)" fill="#FF5824"/>
<ellipse cx="8.78432" cy="39.4302" rx="5.96723" ry="8.95085" transform="rotate(75 8.78432 39.4302)" fill="#FF5824"/>
<ellipse cx="36.709" cy="18.0026" rx="5.96723" ry="8.95085" transform="rotate(30 36.709 18.0026)" fill="#FF5824"/>
<ellipse cx="17.6601" cy="50.997" rx="5.96723" ry="8.95085" transform="rotate(30 17.6601 50.997)" fill="#FF5824"/>
<ellipse cx="43.6817" cy="44.0246" rx="5.96723" ry="8.95085" transform="rotate(120 43.6817 44.0246)" fill="#FF5824"/>
<ellipse cx="10.6876" cy="24.9753" rx="5.96723" ry="8.95085" transform="rotate(120 10.6876 24.9753)" fill="#FF5824"/>
</svg>
