<svg width="40" height="40" viewBox="0 0 40 40" fill="none" xmlns="http://www.w3.org/2000/svg">
<rect width="40" height="40" rx="8" fill="#FFDA00"/>
<g clip-path="url(#clip0_1027_752)">
<path d="M20 10.9809C22.9391 10.9809 23.2871 10.9937 24.443 11.0453C25.5172 11.0926 26.0973 11.273 26.484 11.4234C26.9953 11.6211 27.3648 11.8617 27.7473 12.2441C28.134 12.6309 28.3703 12.9961 28.568 13.5074C28.7184 13.8941 28.8988 14.4785 28.9461 15.5484C28.9977 16.7086 29.0105 17.0566 29.0105 19.9914C29.0105 22.9305 28.9977 23.2785 28.9461 24.4344C28.8988 25.5086 28.7184 26.0887 28.568 26.4754C28.3703 26.9867 28.1297 27.3563 27.7473 27.7387C27.3605 28.1254 26.9953 28.3617 26.484 28.5594C26.0973 28.7098 25.5129 28.8902 24.443 28.9375C23.2828 28.9891 22.9348 29.002 20 29.002C17.0609 29.002 16.7129 28.9891 15.557 28.9375C14.4828 28.8902 13.9027 28.7098 13.516 28.5594C13.0047 28.3617 12.6352 28.1211 12.2527 27.7387C11.866 27.352 11.6297 26.9867 11.432 26.4754C11.2816 26.0887 11.1012 25.5043 11.0539 24.4344C11.0023 23.2742 10.9895 22.9262 10.9895 19.9914C10.9895 17.0523 11.0023 16.7043 11.0539 15.5484C11.1012 14.4742 11.2816 13.8941 11.432 13.5074C11.6297 12.9961 11.8703 12.6266 12.2527 12.2441C12.6395 11.8574 13.0047 11.6211 13.516 11.4234C13.9027 11.273 14.4871 11.0926 15.557 11.0453C16.7129 10.9937 17.0609 10.9809 20 10.9809ZM20 9C17.0137 9 16.6398 9.01289 15.4668 9.06445C14.298 9.11602 13.4945 9.30508 12.7984 9.57578C12.0723 9.85937 11.4578 10.2332 10.8477 10.8477C10.2332 11.4578 9.85938 12.0723 9.57578 12.7941C9.30508 13.4945 9.11602 14.2937 9.06445 15.4625C9.01289 16.6398 9 17.0137 9 20C9 22.9863 9.01289 23.3602 9.06445 24.5332C9.11602 25.702 9.30508 26.5055 9.57578 27.2016C9.85938 27.9277 10.2332 28.5422 10.8477 29.1523C11.4578 29.7625 12.0723 30.1406 12.7941 30.4199C13.4945 30.6906 14.2937 30.8797 15.4625 30.9312C16.6355 30.9828 17.0094 30.9957 19.9957 30.9957C22.982 30.9957 23.3559 30.9828 24.5289 30.9312C25.6977 30.8797 26.5012 30.6906 27.1973 30.4199C27.9191 30.1406 28.5336 29.7625 29.1437 29.1523C29.7539 28.5422 30.132 27.9277 30.4113 27.2059C30.682 26.5055 30.8711 25.7063 30.9227 24.5375C30.9742 23.3645 30.9871 22.9906 30.9871 20.0043C30.9871 17.018 30.9742 16.6441 30.9227 15.4711C30.8711 14.3023 30.682 13.4988 30.4113 12.8027C30.1406 12.0723 29.7668 11.4578 29.1523 10.8477C28.5422 10.2375 27.9277 9.85938 27.2059 9.58008C26.5055 9.30937 25.7062 9.12031 24.5375 9.06875C23.3602 9.01289 22.9863 9 20 9Z" fill="black"/>
<path d="M20 14.3496C16.8805 14.3496 14.3496 16.8805 14.3496 20C14.3496 23.1195 16.8805 25.6504 20 25.6504C23.1195 25.6504 25.6504 23.1195 25.6504 20C25.6504 16.8805 23.1195 14.3496 20 14.3496ZM20 23.6652C17.9762 23.6652 16.3348 22.0238 16.3348 20C16.3348 17.9762 17.9762 16.3348 20 16.3348C22.0238 16.3348 23.6652 17.9762 23.6652 20C23.6652 22.0238 22.0238 23.6652 20 23.6652Z" fill="black"/>
<path d="M27.193 14.1263C27.193 14.8567 26.6 15.4454 25.8738 15.4454C25.1434 15.4454 24.5547 14.8524 24.5547 14.1263C24.5547 13.3958 25.1477 12.8071 25.8738 12.8071C26.6 12.8071 27.193 13.4001 27.193 14.1263Z" fill="black"/>
</g>
<defs>
<clipPath id="clip0_1027_752">
<rect width="22" height="22" fill="white" transform="translate(9 9)"/>
</clipPath>
</defs>
</svg>
