<svg width="22" height="22" viewBox="0 0 22 22" fill="none" xmlns="http://www.w3.org/2000/svg">
<g clip-path="url(#clip0_1027_757)">
<path d="M11 0.458008C17.0619 0.458008 22 4.49241 22 9.43848C21.9999 11.4187 21.227 13.2023 19.6396 14.9648C17.3305 17.64 12.1755 20.8849 11 21.3828C9.82474 21.8805 9.99978 21.072 10.041 20.792C10.0617 20.6813 10.1139 20.3669 10.1963 19.8486C10.2375 19.5583 10.2784 19.1227 10.165 18.8428C10.0414 18.5318 9.55708 18.3759 9.19629 18.293C3.90782 17.5983 0.000281789 13.8762 0 9.43848C0 4.49241 4.92783 0.45801 11 0.458008ZM3.64258 6.87695C3.52933 6.87698 3.43674 6.97012 3.43652 7.08398V11.916C3.43652 12.0301 3.5292 12.124 3.64258 12.124H6.73535C6.84875 12.124 6.94141 12.0301 6.94141 11.916V11.1279C6.94118 11.0141 6.84862 10.9209 6.73535 10.9209H4.63184V7.08398C4.63162 6.97011 4.53905 6.87695 4.42578 6.87695H3.64258ZM7.80762 6.87695C7.6939 6.87695 7.60178 6.96964 7.60156 7.08398V11.916C7.60156 12.0306 7.69377 12.124 7.80762 12.124H8.59082C8.70467 12.124 8.79688 12.0306 8.79688 11.916V7.08398C8.79666 6.96964 8.70454 6.87695 8.59082 6.87695H7.80762ZM9.7666 6.87695C9.65333 6.87695 9.55005 6.97011 9.5498 7.08398V11.916C9.5498 12.0301 9.6532 12.124 9.7666 12.124H10.54C10.6635 12.1238 10.7559 12.0299 10.7559 11.916V9.04395L12.9521 12.0303C12.9659 12.051 12.9833 12.0682 13.0039 12.082H13.0137C13.0137 12.0889 13.0175 12.0928 13.0244 12.0928C13.0253 12.0936 13.0283 12.0976 13.0342 12.1035H13.0547V12.1133H13.0752C13.0889 12.1202 13.1064 12.124 13.127 12.124H13.9004C14.0241 12.124 14.1172 12.0301 14.1172 11.916V7.08398C14.117 6.97011 14.0239 6.87696 13.9004 6.87695H13.127C13.0138 6.87708 12.9114 6.97019 12.9111 7.08398V9.94629L10.7148 6.9707C10.7148 6.96379 10.711 6.95613 10.7041 6.94922L10.6738 6.91895C10.6738 6.91895 10.67 6.91895 10.6631 6.91895C10.6631 6.91216 10.6599 6.90832 10.6533 6.9082C10.6533 6.9082 10.6533 6.90437 10.6533 6.89746H10.6328C10.6269 6.89147 10.6229 6.88849 10.6221 6.8877H10.6113C10.6047 6.88757 10.6016 6.88373 10.6016 6.87695H9.7666ZM15.0752 6.87695C14.9621 6.87718 14.8694 6.97025 14.8691 7.08398V11.916C14.8691 12.0299 14.962 12.1238 15.0752 12.124H18.168C18.2814 12.124 18.375 12.0301 18.375 11.916V11.1279C18.3748 11.0141 18.2812 10.9209 18.168 10.9209H16.0654V10.1016H18.168C18.2813 10.1016 18.3749 10.0085 18.375 9.89453V9.10645C18.375 8.99238 18.2814 8.89941 18.168 8.89941H16.0654V8.08008H18.168C18.2814 8.08008 18.375 7.98613 18.375 7.87207V7.08398C18.3748 6.97011 18.2812 6.87695 18.168 6.87695H15.0752Z" fill="black"/>
</g>
<defs>
<clipPath id="clip0_1027_757">
<rect width="22" height="22" fill="white"/>
</clipPath>
</defs>
</svg>
