<svg width="718" height="164" viewBox="0 0 718 164" fill="none" xmlns="http://www.w3.org/2000/svg">
<mask id="path-1-outside-1_1026_587" maskUnits="userSpaceOnUse" x="0" y="0" width="718" height="164" fill="black">
<rect fill="white" width="718" height="164"/>
<path d="M432.65 2C451.308 2 467.534 12.4072 475.843 27.7324C483.667 22.4643 493.091 19.3896 503.232 19.3896C517.097 19.3897 529.617 25.1381 538.545 34.3789C543.323 28.3627 550.702 24.5049 558.981 24.5049C562.679 24.5049 566.196 25.2757 569.383 26.6631C576.739 16.6693 588.584 10.1836 601.944 10.1836C619.576 10.1837 634.567 21.4779 640.084 37.2256C641.647 36.9334 643.259 36.7793 644.907 36.7793C657.267 36.7795 667.618 45.3766 670.31 56.917C672.683 56.4577 675.133 56.2148 677.641 56.2148C698.826 56.215 716 73.389 716 94.5742C716 115.76 698.826 132.934 677.641 132.935C673.011 132.935 668.572 132.113 664.463 130.61C657.249 148.751 639.534 161.576 618.822 161.576C600.334 161.576 584.235 151.356 575.859 136.258C569.142 141.238 560.826 144.186 551.821 144.187C540.617 144.187 530.479 139.625 523.16 132.26C518.382 138.279 511.003 142.141 502.721 142.141C495.631 142.141 489.203 139.31 484.501 134.72C477.515 144.184 466.286 150.324 453.62 150.324C439.667 150.324 427.455 142.873 420.742 131.733C414.182 139.946 404.085 145.209 392.757 145.209C378.058 145.209 365.43 136.35 359.916 123.682C352.57 131.278 342.272 136.003 330.869 136.003C320.62 136.003 311.265 132.185 304.142 125.896C295.141 137.05 281.362 144.187 265.914 144.187C253.899 144.187 242.893 139.868 234.359 132.702C225.461 145.223 210.84 153.393 194.31 153.393C177.821 153.393 163.232 145.265 154.327 132.798C147.169 139.241 137.697 143.163 127.308 143.163C121.958 143.163 116.852 142.121 112.179 140.232C105.496 145.888 96.8544 149.301 87.4141 149.301C71.914 149.301 58.5622 140.107 52.5117 126.876C48.6928 128.151 44.6069 128.843 40.3594 128.843C19.1742 128.843 2.00025 111.669 2 90.4834C2 69.298 19.1741 52.1232 40.3594 52.123C42.2286 52.123 44.0665 52.2592 45.8643 52.5176C51.3784 34.5217 68.1235 21.4355 87.9258 21.4355C95.6735 21.4356 102.952 23.4413 109.274 26.958C117.169 21.5392 126.726 18.3673 137.025 18.3672C142.447 18.3672 147.664 19.2471 152.541 20.8701C159.928 11.2623 171.536 5.06934 184.592 5.06934C198.882 5.06937 211.438 12.4873 218.622 23.6826C224.077 20.9375 230.238 19.3896 236.761 19.3896C249.806 19.3896 261.404 25.5738 268.792 35.168C276.254 29.1395 285.75 25.5274 296.09 25.5273C311.13 25.5273 324.387 33.1657 332.192 44.7744C338.551 31.5707 352.059 22.459 367.695 22.459C375.526 22.4591 382.822 24.7446 388.954 28.6846C397.099 12.8395 413.609 2.00001 432.65 2Z"/>
</mask>
<path d="M432.65 2C451.308 2 467.534 12.4072 475.843 27.7324C483.667 22.4643 493.091 19.3896 503.232 19.3896C517.097 19.3897 529.617 25.1381 538.545 34.3789C543.323 28.3627 550.702 24.5049 558.981 24.5049C562.679 24.5049 566.196 25.2757 569.383 26.6631C576.739 16.6693 588.584 10.1836 601.944 10.1836C619.576 10.1837 634.567 21.4779 640.084 37.2256C641.647 36.9334 643.259 36.7793 644.907 36.7793C657.267 36.7795 667.618 45.3766 670.31 56.917C672.683 56.4577 675.133 56.2148 677.641 56.2148C698.826 56.215 716 73.389 716 94.5742C716 115.76 698.826 132.934 677.641 132.935C673.011 132.935 668.572 132.113 664.463 130.61C657.249 148.751 639.534 161.576 618.822 161.576C600.334 161.576 584.235 151.356 575.859 136.258C569.142 141.238 560.826 144.186 551.821 144.187C540.617 144.187 530.479 139.625 523.16 132.26C518.382 138.279 511.003 142.141 502.721 142.141C495.631 142.141 489.203 139.31 484.501 134.72C477.515 144.184 466.286 150.324 453.62 150.324C439.667 150.324 427.455 142.873 420.742 131.733C414.182 139.946 404.085 145.209 392.757 145.209C378.058 145.209 365.43 136.35 359.916 123.682C352.57 131.278 342.272 136.003 330.869 136.003C320.62 136.003 311.265 132.185 304.142 125.896C295.141 137.05 281.362 144.187 265.914 144.187C253.899 144.187 242.893 139.868 234.359 132.702C225.461 145.223 210.84 153.393 194.31 153.393C177.821 153.393 163.232 145.265 154.327 132.798C147.169 139.241 137.697 143.163 127.308 143.163C121.958 143.163 116.852 142.121 112.179 140.232C105.496 145.888 96.8544 149.301 87.4141 149.301C71.914 149.301 58.5622 140.107 52.5117 126.876C48.6928 128.151 44.6069 128.843 40.3594 128.843C19.1742 128.843 2.00025 111.669 2 90.4834C2 69.298 19.1741 52.1232 40.3594 52.123C42.2286 52.123 44.0665 52.2592 45.8643 52.5176C51.3784 34.5217 68.1235 21.4355 87.9258 21.4355C95.6735 21.4356 102.952 23.4413 109.274 26.958C117.169 21.5392 126.726 18.3673 137.025 18.3672C142.447 18.3672 147.664 19.2471 152.541 20.8701C159.928 11.2623 171.536 5.06934 184.592 5.06934C198.882 5.06937 211.438 12.4873 218.622 23.6826C224.077 20.9375 230.238 19.3896 236.761 19.3896C249.806 19.3896 261.404 25.5738 268.792 35.168C276.254 29.1395 285.75 25.5274 296.09 25.5273C311.13 25.5273 324.387 33.1657 332.192 44.7744C338.551 31.5707 352.059 22.459 367.695 22.459C375.526 22.4591 382.822 24.7446 388.954 28.6846C397.099 12.8395 413.609 2.00001 432.65 2Z" fill="#202020"/>
<path d="M432.65 2V0V2ZM475.843 27.7324L474.085 28.6857L475.134 30.6209L476.96 29.3914L475.843 27.7324ZM503.232 19.3896V17.3896V19.3896ZM538.545 34.3789L537.107 35.7686L538.692 37.4095L540.111 35.6228L538.545 34.3789ZM558.981 24.5049V22.5049V24.5049ZM569.383 26.6631L568.584 28.4969L570.048 29.1338L570.994 27.8486L569.383 26.6631ZM601.944 10.1836V8.18359V10.1836ZM640.084 37.2256L638.196 37.8869L638.764 39.507L640.451 39.1915L640.084 37.2256ZM644.907 36.7793V34.7793V36.7793ZM670.31 56.917L668.362 57.3712L668.799 59.2464L670.69 58.8806L670.31 56.917ZM677.641 56.2148V54.2148V56.2148ZM716 94.5742H718V94.5742L716 94.5742ZM677.641 132.935V134.935V132.935ZM664.463 130.61L665.15 128.732L663.323 128.064L662.604 129.871L664.463 130.61ZM618.822 161.576V163.576V161.576ZM575.859 136.258L577.608 135.288L576.501 133.292L574.668 134.651L575.859 136.258ZM551.821 144.187V146.187V144.187ZM523.16 132.26L524.579 130.85L522.993 129.254L521.594 131.016L523.16 132.26ZM502.721 142.141V144.141V142.141ZM484.501 134.72L485.898 133.289L484.255 131.685L482.892 133.532L484.501 134.72ZM453.62 150.324V152.324V150.324ZM420.742 131.733L422.455 130.701L420.973 128.241L419.18 130.485L420.742 131.733ZM392.757 145.209V147.209H392.757L392.757 145.209ZM359.916 123.682L361.75 122.883L360.557 120.142L358.478 122.291L359.916 123.682ZM330.869 136.003L330.869 138.003H330.869V136.003ZM304.142 125.896L305.465 124.397L303.898 123.014L302.585 124.64L304.142 125.896ZM265.914 144.187V146.187V144.187ZM234.359 132.702L235.646 131.171L233.985 129.776L232.729 131.544L234.359 132.702ZM194.31 153.393V155.393V153.393ZM154.327 132.798L155.955 131.635L154.653 129.813L152.989 131.311L154.327 132.798ZM127.308 143.163L127.308 145.163H127.308V143.163ZM112.179 140.232L112.928 138.378L111.808 137.926L110.887 138.706L112.179 140.232ZM87.4141 149.301V151.301V149.301ZM52.5117 126.876L54.3306 126.044L53.5832 124.41L51.8785 124.979L52.5117 126.876ZM40.3594 128.843L40.3594 130.843H40.3594V128.843ZM2 90.4834H0V90.4834L2 90.4834ZM40.3594 52.123V50.123H40.3594L40.3594 52.123ZM45.8643 52.5176L45.5798 54.4972L47.2748 54.7408L47.7765 53.1035L45.8643 52.5176ZM87.9258 21.4355L87.9258 19.4355H87.9258V21.4355ZM109.274 26.958L108.302 28.7058L109.385 29.308L110.406 28.607L109.274 26.958ZM137.025 18.3672V16.3672H137.025L137.025 18.3672ZM152.541 20.8701L151.909 22.7678L153.259 23.2171L154.127 22.0891L152.541 20.8701ZM184.592 5.06934V3.06934V5.06934ZM218.622 23.6826L216.939 24.7627L217.912 26.2791L219.521 25.4691L218.622 23.6826ZM236.761 19.3896V17.3896V19.3896ZM268.792 35.168L267.207 36.3882L268.456 38.0102L270.049 36.7237L268.792 35.168ZM296.09 25.5273V23.5273H296.09L296.09 25.5273ZM332.192 44.7744L330.533 45.8904L332.48 48.7865L333.994 45.6422L332.192 44.7744ZM367.695 22.459L367.695 20.459H367.695V22.459ZM388.954 28.6846L387.873 30.3672L389.726 31.5577L390.733 29.5989L388.954 28.6846ZM432.65 2V4C450.545 4 466.111 13.9794 474.085 28.6857L475.843 27.7324L477.601 26.7792C468.957 10.8349 452.071 0 432.65 0V2ZM475.843 27.7324L476.96 29.3914C484.464 24.3386 493.501 21.3896 503.232 21.3896V19.3896V17.3896C492.681 17.3896 482.87 20.59 474.726 26.0734L475.843 27.7324ZM503.232 19.3896V21.3896C516.532 21.3897 528.539 26.9015 537.107 35.7686L538.545 34.3789L539.983 32.9892C530.694 23.3748 517.661 17.3897 503.232 17.3896V19.3896ZM538.545 34.3789L540.111 35.6228C544.526 30.0637 551.337 26.5049 558.981 26.5049V24.5049V22.5049C550.066 22.5049 542.12 26.6617 536.979 33.135L538.545 34.3789ZM558.981 24.5049V26.5049C562.399 26.5049 565.644 27.2168 568.584 28.4969L569.383 26.6631L570.181 24.8293C566.748 23.3346 562.959 22.5049 558.981 22.5049V24.5049ZM569.383 26.6631L570.994 27.8486C577.989 18.3447 589.246 12.1836 601.944 12.1836V10.1836V8.18359C587.921 8.18359 575.488 14.9938 567.772 25.4775L569.383 26.6631ZM601.944 10.1836V12.1836C618.7 12.1837 632.951 22.9159 638.196 37.8869L640.084 37.2256L641.971 36.5643C636.182 20.04 620.452 8.18368 601.944 8.18359V10.1836ZM640.084 37.2256L640.451 39.1915C641.895 38.9217 643.384 38.7793 644.907 38.7793V36.7793V34.7793C643.134 34.7793 641.399 34.9451 639.716 35.2596L640.084 37.2256ZM644.907 36.7793V38.7793C656.317 38.7795 665.877 46.7157 668.362 57.3712L670.31 56.917L672.257 56.4628C669.36 44.0375 658.218 34.7795 644.907 34.7793V36.7793ZM670.31 56.917L670.69 58.8806C672.939 58.4452 675.263 58.2148 677.641 58.2148V56.2148V54.2148C675.004 54.2148 672.426 54.4703 669.93 54.9534L670.31 56.917ZM677.641 56.2148V58.2148C697.721 58.2149 714 74.4936 714 94.5742L716 94.5742L718 94.5742C718 72.2845 699.93 54.215 677.641 54.2148V56.2148ZM716 94.5742H714C714 114.655 697.721 130.934 677.641 130.935V132.935V134.935C699.931 134.934 718 116.864 718 94.5742H716ZM677.641 132.935V130.935C673.249 130.935 669.043 130.156 665.15 128.732L664.463 130.61L663.776 132.489C668.102 134.071 672.773 134.935 677.641 134.935V132.935ZM664.463 130.61L662.604 129.871C655.683 147.277 638.687 159.576 618.822 159.576V161.576V163.576C640.381 163.576 658.815 150.226 666.321 131.349L664.463 130.61ZM618.822 161.576V159.576C601.09 159.576 585.645 149.776 577.608 135.288L575.859 136.258L574.11 137.228C582.824 152.935 599.578 163.576 618.822 163.576V161.576ZM575.859 136.258L574.668 134.651C568.283 139.385 560.382 142.186 551.821 142.187V144.187V146.187C561.27 146.186 570 143.091 577.051 137.864L575.859 136.258ZM551.821 144.187V142.187C541.172 142.187 531.538 137.853 524.579 130.85L523.16 132.26L521.741 133.669C529.42 141.397 540.063 146.187 551.821 146.187V144.187ZM523.16 132.26L521.594 131.016C517.178 136.578 510.367 140.141 502.721 140.141V142.141V144.141C511.639 144.141 519.586 139.98 524.727 133.503L523.16 132.26ZM502.721 142.141V140.141C496.174 140.141 490.242 137.529 485.898 133.289L484.501 134.72L483.104 136.151C488.164 141.091 495.087 144.141 502.721 144.141V142.141ZM484.501 134.72L482.892 133.532C476.267 142.508 465.624 148.324 453.62 148.324V150.324V152.324C466.948 152.324 478.764 145.86 486.11 135.907L484.501 134.72ZM453.62 150.324V148.324C440.397 148.324 428.821 141.265 422.455 130.701L420.742 131.733L419.029 132.766C426.088 144.481 438.937 152.324 453.62 152.324V150.324ZM420.742 131.733L419.18 130.485C412.982 138.243 403.451 143.209 392.757 143.209L392.757 145.209L392.757 147.209C404.719 147.209 415.382 141.648 422.305 132.982L420.742 131.733ZM392.757 145.209V143.209C378.883 143.209 366.958 134.849 361.75 122.883L359.916 123.682L358.082 124.48C363.903 137.852 377.234 147.209 392.757 147.209V145.209ZM359.916 123.682L358.478 122.291C351.493 129.515 341.707 134.003 330.869 134.003V136.003V138.003C342.836 138.003 353.646 133.042 361.354 125.072L359.916 123.682ZM330.869 136.003L330.869 134.003C321.127 134.003 312.237 130.376 305.465 124.397L304.142 125.896L302.818 127.396C310.292 133.994 320.114 138.003 330.869 138.003L330.869 136.003ZM304.142 125.896L302.585 124.64C293.948 135.344 280.732 142.187 265.914 142.187V144.187V146.187C281.993 146.187 296.334 138.756 305.698 127.152L304.142 125.896ZM265.914 144.187V142.187C254.387 142.187 243.833 138.046 235.646 131.171L234.359 132.702L233.073 134.234C241.953 141.691 253.411 146.187 265.914 146.187V144.187ZM234.359 132.702L232.729 131.544C224.19 143.559 210.165 151.393 194.31 151.393V153.393V155.393C211.515 155.393 226.733 146.887 235.99 133.861L234.359 132.702ZM194.31 153.393V151.393C178.494 151.393 164.5 143.6 155.955 131.635L154.327 132.798L152.7 133.96C161.963 146.93 177.148 155.393 194.31 155.393V153.393ZM154.327 132.798L152.989 131.311C146.184 137.437 137.183 141.163 127.308 141.163V143.163V145.163C138.21 145.163 148.154 141.045 155.665 134.284L154.327 132.798ZM127.308 143.163L127.308 141.163C122.22 141.163 117.368 140.172 112.928 138.378L112.179 140.232L111.429 142.087C116.336 144.07 121.696 145.163 127.308 145.163L127.308 143.163ZM112.179 140.232L110.887 138.706C104.551 144.068 96.3634 147.301 87.4141 147.301V149.301V151.301C97.3455 151.301 106.441 147.709 113.471 141.759L112.179 140.232ZM87.4141 149.301V147.301C72.7253 147.301 60.0677 138.59 54.3306 126.044L52.5117 126.876L50.6929 127.708C57.0568 141.624 71.1027 151.301 87.4141 151.301V149.301ZM52.5117 126.876L51.8785 124.979C48.2606 126.186 44.3883 126.843 40.3594 126.843V128.843V130.843C44.8254 130.843 49.125 130.115 53.1449 128.773L52.5117 126.876ZM40.3594 128.843L40.3594 126.843C20.2788 126.843 4.00024 110.564 4 90.4834L2 90.4834L0 90.4834C0.00026679 112.773 18.0696 130.843 40.3594 130.843L40.3594 128.843ZM2 90.4834H4C4 70.4026 20.2787 54.1232 40.3594 54.123L40.3594 52.123L40.3594 50.123C18.0694 50.1232 0 68.1935 0 90.4834H2ZM40.3594 52.123V54.123C42.1313 54.123 43.8742 54.2521 45.5798 54.4972L45.8643 52.5176L46.1488 50.5379C44.2589 50.2663 42.3259 50.123 40.3594 50.123V52.123ZM45.8643 52.5176L47.7765 53.1035C53.0405 35.9242 69.0269 23.4355 87.9258 23.4355V21.4355V19.4355C67.22 19.4355 49.7164 33.1192 43.952 51.9316L45.8643 52.5176ZM87.9258 21.4355L87.9258 23.4355C95.3241 23.4356 102.269 25.35 108.302 28.7058L109.274 26.958L110.247 25.2102C103.635 21.5326 96.0229 19.4356 87.9258 19.4355L87.9258 21.4355ZM109.274 26.958L110.406 28.607C117.979 23.4094 127.143 20.3673 137.025 20.3672L137.025 18.3672L137.025 16.3672C126.31 16.3673 116.36 19.669 108.143 25.3091L109.274 26.958ZM137.025 18.3672V20.3672C142.23 20.3672 147.233 21.2116 151.909 22.7678L152.541 20.8701L153.173 18.9725C148.095 17.2826 142.665 16.3672 137.025 16.3672V18.3672ZM152.541 20.8701L154.127 22.0891C161.151 12.9524 172.183 7.06934 184.592 7.06934V5.06934V3.06934C170.888 3.06934 158.704 9.5722 150.955 19.6511L152.541 20.8701ZM184.592 5.06934V7.06934C198.172 7.06937 210.107 14.1164 216.939 24.7627L218.622 23.6826L220.305 22.6025C212.769 10.8582 199.591 3.06937 184.592 3.06934V5.06934ZM218.622 23.6826L219.521 25.4691C224.704 22.8609 230.558 21.3896 236.761 21.3896V19.3896V17.3896C229.918 17.3896 223.45 19.014 217.723 21.8961L218.622 23.6826ZM236.761 19.3896V21.3896C249.159 21.3896 260.182 27.2642 267.207 36.3882L268.792 35.168L270.377 33.9478C262.627 23.8833 250.453 17.3896 236.761 17.3896V19.3896ZM268.792 35.168L270.049 36.7237C277.169 30.972 286.224 27.5274 296.09 27.5273L296.09 25.5273L296.09 23.5273C285.275 23.5274 275.34 27.307 267.535 33.6122L268.792 35.168ZM296.09 25.5273V27.5273C310.437 27.5273 323.083 34.8107 330.533 45.8904L332.192 44.7744L333.852 43.6584C325.691 31.5208 311.824 23.5273 296.09 23.5273V25.5273ZM332.192 44.7744L333.994 45.6422C340.032 33.1044 352.856 24.459 367.695 24.459V22.459V20.459C351.262 20.459 337.07 30.037 330.39 43.9066L332.192 44.7744ZM367.695 22.459L367.695 24.459C375.131 24.4591 382.054 26.6281 387.873 30.3672L388.954 28.6846L390.035 27.0019C383.59 22.861 375.92 20.4591 367.695 20.459L367.695 22.459ZM388.954 28.6846L390.733 29.5989C398.548 14.3943 414.387 4.00001 432.65 4V2V0C412.83 1.50204e-05 395.649 11.2848 387.175 27.7702L388.954 28.6846Z" fill="white" mask="url(#path-1-outside-1_1026_587)"/>
</svg>
