<svg width="741" height="411" viewBox="0 0 741 411" fill="none" xmlns="http://www.w3.org/2000/svg">
<circle cx="405.9" cy="323.454" r="14.6539" transform="rotate(-27.1961 405.9 323.454)" fill="#127DFF"/>
<circle cx="419.244" cy="367.972" r="10.194" transform="rotate(-27.1961 419.244 367.972)" fill="#127DFF"/>
<circle cx="409.58" cy="403.456" r="7.00839" transform="rotate(-27.1961 409.58 403.456)" fill="#127DFF"/>
<ellipse cx="54.5443" cy="149.622" rx="54.5443" ry="54.5443" transform="rotate(-90 54.5443 149.622)" fill="#127DFF"/>
<circle cx="127.103" cy="108.088" r="65.0528" transform="rotate(-90 127.103 108.088)" fill="#127DFF"/>
<circle cx="249.579" cy="209.612" r="50.9701" transform="rotate(-90 249.579 209.612)" fill="#127DFF"/>
<circle cx="547.754" cy="204.515" r="50.9701" transform="rotate(-90 547.754 204.515)" fill="#127DFF"/>
<circle cx="695.764" cy="157.327" r="45.236" transform="rotate(-90 695.764 157.327)" fill="#127DFF"/>
<circle cx="142.424" cy="156.435" r="92.3834" transform="rotate(-90 142.424 156.435)" fill="#127DFF"/>
<circle cx="261.433" cy="101.303" r="101.303" transform="rotate(-90 261.433 101.303)" fill="#127DFF"/>
<circle cx="362.35" cy="196.232" r="107.674" transform="rotate(-90 362.35 196.232)" fill="#127DFF"/>
<ellipse cx="382.811" cy="94.0763" rx="62.0504" ry="62.5508" transform="rotate(-90 382.811 94.0763)" fill="#127DFF"/>
<ellipse cx="485.316" cy="121.051" rx="69.4468" ry="68.8097" transform="rotate(-90 485.316 121.051)" fill="#127DFF"/>
<ellipse cx="479.389" cy="199.662" rx="60.5492" ry="60.0488" transform="rotate(-90 479.389 199.662)" fill="#127DFF"/>
<ellipse cx="573.466" cy="113.092" rx="60.0487" ry="59.0479" transform="rotate(-90 573.466 113.092)" fill="#127DFF"/>
<circle cx="637.815" cy="177.442" r="64.3498" transform="rotate(-90 637.815 177.442)" fill="#127DFF"/>
<circle cx="650.969" cy="120.414" r="45.8731" transform="rotate(-90 650.969 120.414)" fill="#127DFF"/>
</svg>
